<svg version="1.1" id="Layer_1" xmlns="http://www.w3.org/2000/svg" xmlns:xlink="http://www.w3.org/1999/xlink" x="0px" y="0px"
	 width="100%" viewBox="0 0 2362 2362" enable-background="new 0 0 2362 2362" xml:space="preserve">
<path fill="#FFFFFF" opacity="1.000000" stroke="none" 
	d="
M1104.000000,2364.000000 
	C736.000000,2364.000000 369.000000,2364.000000 2.000000,2364.000000 
	C2.000000,1576.666626 2.000000,789.333313 2.000000,2.000000 
	C789.333313,2.000000 1576.666626,2.000000 2364.000000,2.000000 
	C2364.000000,789.333313 2364.000000,1576.666626 2364.000000,2364.000000 
	C1944.333374,2364.000000 1524.666626,2364.000000 1104.000000,2364.000000 
M404.051392,1607.927246 
	C404.051392,1607.927246 404.178772,1607.806641 404.226654,1609.170776 
	C414.557739,1620.757812 427.060089,1629.661987 440.790863,1636.477905 
	C451.392426,1641.740723 462.830292,1645.318726 475.361481,1650.095215 
	C478.871887,1650.893677 482.382324,1651.692139 486.602600,1653.278076 
	C487.611908,1653.421875 488.621216,1653.565552 491.203247,1654.147095 
	C571.030457,1670.686646 656.924622,1622.904785 685.956421,1545.193848 
	C699.062866,1512.443481 700.661377,1478.982056 691.983337,1444.940552 
	C691.034424,1441.218262 689.289551,1437.698730 687.768005,1432.558716 
	C685.825867,1427.265137 684.149231,1421.855835 681.901428,1416.695312 
	C652.770508,1349.817749 585.881042,1308.735474 512.113953,1314.407349 
	C463.695343,1318.130127 423.356323,1338.925659 391.726776,1375.716064 
	C373.456390,1396.967529 360.723969,1421.318359 354.448639,1450.246460 
	C353.792358,1455.477173 353.463104,1460.774048 352.420166,1465.926514 
	C348.929199,1483.173462 350.992889,1500.349976 354.073059,1517.220825 
	C355.988159,1527.710327 360.811768,1537.668945 364.333374,1549.081421 
	C365.211029,1550.860229 366.088684,1552.638916 367.216766,1555.674072 
	C367.613312,1556.425903 368.009857,1557.177612 368.550690,1559.358643 
	C369.534027,1560.996948 370.517365,1562.635132 371.106567,1564.714966 
	C371.106567,1564.714966 371.417603,1565.217529 371.417603,1565.217529 
	C371.417603,1565.217529 372.009583,1565.217407 372.262634,1565.928711 
	C372.262634,1565.928711 372.867615,1566.380493 373.163605,1567.701416 
	C373.975830,1568.743896 374.788055,1569.786255 375.666351,1571.506592 
	C375.666351,1571.506592 376.158539,1571.977295 376.212372,1573.364380 
	C380.123322,1578.910400 384.034271,1584.456543 388.160400,1591.120850 
	C388.713654,1591.626343 389.266907,1592.131958 390.088501,1593.867065 
	C391.357025,1594.937866 392.625549,1596.008667 393.850372,1597.249756 
	C393.850372,1597.249756 393.990082,1597.356689 394.186584,1598.802124 
	C397.513397,1601.809326 400.840210,1604.816650 404.051392,1607.927246 
M879.653992,1000.066650 
	C879.653992,1000.066650 879.586182,1000.366638 880.089905,1001.612122 
	C898.328430,1025.807983 925.972778,1035.796875 955.147888,1028.039429 
	C993.882690,1017.739990 1018.259949,978.116699 1006.159180,937.517090 
	C1001.119202,921.484985 992.548523,907.346130 978.963684,897.681885 
	C934.129211,865.786499 876.355530,893.675781 865.657715,941.635803 
	C861.346680,962.380371 865.213501,981.339050 878.326050,999.197388 
	C878.654480,999.730469 879.105652,1000.122375 879.653992,1000.066650 
M572.905823,826.883240 
	C570.477417,823.331604 568.411804,819.454163 565.562073,816.280945 
	C546.113586,794.624878 510.255493,799.640320 497.049286,826.663391 
	C492.232422,835.368408 490.993408,844.498901 493.432617,854.201355 
	C496.079620,864.730347 501.551392,873.413330 510.133942,881.364807 
	C527.883545,895.085815 550.283813,892.292664 564.730896,879.628479 
	C577.877686,868.104126 584.165222,847.317261 572.905823,826.883240 
M456.785278,834.536865 
	C456.716553,833.549622 456.647858,832.562439 457.139404,829.908447 
	C456.892273,825.832764 456.645172,821.757080 456.836121,816.515015 
	C455.912750,812.996460 455.085602,809.449280 454.050598,805.963867 
	C446.660004,781.076111 419.945648,764.181030 394.465973,768.238342 
	C366.362488,772.713562 346.870300,796.143066 347.769592,825.536743 
	C347.697174,851.275269 367.742310,875.486267 392.135376,879.122803 
	C423.574799,883.809875 449.117859,866.179016 456.785278,834.536865 
M176.252319,933.425659 
	C178.957092,936.340149 181.378555,939.595520 184.410980,942.115845 
	C211.104813,964.301575 250.377930,963.666748 277.087860,940.532471 
	C305.833099,915.635315 309.871704,874.706848 289.804840,844.467834 
	C269.699402,812.087708 227.459900,802.564453 195.096237,819.898926 
	C156.148117,840.760010 142.996826,889.903809 171.815201,929.317444 
	C172.726746,930.563965 174.394470,931.257568 176.252319,933.425659 
M1052.623901,1002.187500 
	C1053.480713,1003.298340 1054.337524,1004.409180 1056.070068,1007.085022 
	C1056.477783,1007.522339 1056.885376,1007.959595 1057.683960,1009.469116 
	C1085.712646,1047.842407 1144.437134,1055.098145 1182.483154,1019.538879 
	C1208.194702,995.507996 1216.720703,966.014221 1206.401855,930.045349 
	C1203.034424,915.581360 1193.335938,905.292786 1184.047974,894.386841 
	C1169.620117,877.445618 1150.615112,869.912964 1129.785156,869.053650 
	C1096.029785,867.661133 1069.343994,882.388550 1051.190186,911.086731 
	C1041.772705,925.974121 1037.104370,942.437012 1038.786255,961.836487 
	C1039.758545,974.494263 1043.049805,986.413086 1049.836548,997.004089 
	C1049.836548,997.004089 1050.181396,997.515381 1051.086426,999.564697 
	C1051.508911,1000.180481 1051.931396,1000.796204 1052.623901,1002.187500 
M228.385101,1087.308105 
	C228.146210,1083.733887 228.387466,1080.048340 227.588089,1076.604248 
	C223.365295,1058.410645 214.573013,1042.559937 201.305420,1029.506348 
	C187.110657,1015.540771 170.698380,1005.379272 148.753769,1002.430664 
	C134.465744,998.277893 120.411163,1000.566040 106.390457,1003.947693 
	C61.981594,1014.658508 26.149843,1059.645386 31.954647,1108.379272 
	C36.665817,1147.931641 56.655933,1176.570557 93.214325,1192.961548 
	C106.697655,1199.006714 120.938179,1201.800049 137.571991,1199.883789 
	C141.406845,1199.232178 145.294098,1198.796997 149.065613,1197.883911 
	C156.736847,1196.026733 164.788864,1194.904541 171.902863,1191.729492 
	C201.697937,1178.431030 220.845230,1155.546753 228.587738,1123.938477 
	C231.377823,1112.548218 233.913208,1100.507935 228.385101,1087.308105 
M344.872131,1319.937988 
	C344.710632,1319.321533 344.510803,1318.717773 344.715424,1317.250854 
	C343.987885,1315.883789 343.260345,1314.516724 342.216614,1311.739136 
	C338.023010,1303.104614 334.658844,1293.936035 329.499664,1285.923218 
	C298.677521,1238.052002 243.939590,1216.260376 187.268509,1228.897095 
	C174.797974,1231.677734 162.165771,1235.337036 150.537292,1244.145630 
	C135.928635,1252.421387 123.444420,1263.123291 113.061485,1276.360107 
	C88.274902,1307.959717 79.254524,1343.504395 86.745148,1382.933960 
	C91.505028,1407.989136 103.388573,1429.787231 120.330803,1448.597046 
	C129.401138,1458.667114 139.548416,1467.857178 153.132095,1474.432617 
	C186.080597,1492.740967 220.707535,1496.421753 256.665375,1485.499146 
	C274.503235,1480.080933 291.012177,1471.802612 305.870239,1458.134766 
	C314.242340,1448.780518 323.716522,1440.181641 330.754913,1429.913208 
	C344.982880,1409.155762 352.008575,1385.609741 351.759338,1360.372437 
	C351.666412,1350.960205 352.848511,1341.080444 347.810669,1330.844238 
	C347.640656,1329.956421 347.470673,1329.068726 347.655853,1326.857422 
	C346.751434,1324.868408 345.847015,1322.879395 344.872131,1319.937988 
M781.315308,862.650330 
	C771.158386,862.752869 762.434021,867.232849 754.081299,872.210144 
	C727.246765,888.200989 719.964966,923.420410 738.591675,950.108521 
	C753.140015,970.953308 777.583313,980.045410 800.518250,972.749268 
	C826.584717,964.456909 843.348450,938.747314 838.955627,912.543640 
	C834.541809,886.214783 815.473999,863.399292 781.315308,862.650330 
M2252.952881,1157.921997 
	C2244.713623,1160.316895 2236.474365,1162.711670 2226.763184,1165.534302 
	C2226.763184,1161.253662 2226.763184,1158.038452 2226.763184,1154.823364 
	C2226.764160,1134.167358 2226.766602,1113.511230 2226.763428,1092.855225 
	C2226.762939,1090.523560 2226.755371,1088.191284 2226.707520,1085.860229 
	C2226.629639,1082.060059 2224.509033,1080.211060 2220.914062,1080.888672 
	C2211.438477,1082.674683 2201.970703,1084.554688 2192.595459,1086.797363 
	C2188.521729,1087.771851 2188.730957,1090.673340 2190.864746,1093.618286 
	C2202.914307,1094.593140 2203.790039,1095.523926 2203.915771,1107.447632 
	C2203.937012,1109.446289 2203.920654,1111.445557 2203.920654,1113.444458 
	C2203.920410,1155.756104 2203.920166,1198.067749 2203.919678,1240.379395 
	C2203.919678,1243.989258 2203.919434,1247.599243 2203.919434,1252.601685 
	C2211.876221,1252.032104 2218.900635,1251.529175 2226.763916,1250.966187 
	C2226.763916,1246.332031 2226.763916,1243.061157 2226.763916,1239.790405 
	C2226.763672,1223.465454 2226.763184,1207.140381 2226.763184,1190.815430 
	C2226.763428,1174.748413 2226.763916,1174.750000 2242.283203,1171.383179 
	C2243.584229,1171.100830 2244.862549,1170.683472 2246.175537,1170.491455 
	C2260.045898,1168.461914 2268.897949,1174.991821 2270.174072,1189.056641 
	C2270.953613,1197.647339 2270.550537,1206.349609 2270.585693,1215.002197 
	C2270.635010,1227.187744 2270.598145,1239.373535 2270.598145,1252.020264 
	C2275.876465,1252.020264 2280.164551,1252.306763 2284.400635,1251.959961 
	C2292.848389,1251.268311 2293.406250,1250.627319 2293.495605,1242.321045 
	C2293.692871,1224.000977 2293.923828,1205.679321 2293.871582,1187.359009 
	C2293.800293,1162.464600 2280.923828,1152.114502 2256.582520,1157.107788 
	C2255.930908,1157.241577 2255.291016,1157.434937 2252.952881,1157.921997 
M669.967712,927.269226 
	C696.333069,922.387390 709.871277,898.031372 704.606506,875.495361 
	C697.961304,847.049866 670.648254,831.980347 645.042175,842.937073 
	C636.202942,846.719360 630.416443,853.558838 624.983459,861.335876 
	C620.084961,868.347839 617.859680,875.938538 618.530701,883.785522 
	C620.872192,911.167236 643.908081,930.723938 669.967712,927.269226 
M1639.516235,1199.065674 
	C1639.513794,1193.742798 1639.873047,1188.390503 1639.445312,1183.102051 
	C1637.767334,1162.357910 1625.280884,1152.767212 1604.867432,1156.463867 
	C1600.301636,1157.290527 1595.816406,1158.623779 1591.347778,1159.910645 
	C1585.322998,1161.646118 1579.350586,1163.562866 1572.971069,1165.519653 
	C1571.678467,1160.859497 1571.933350,1154.956909 1564.923462,1156.376099 
	C1555.802002,1158.222656 1546.700073,1160.175415 1537.626343,1162.243042 
	C1533.441162,1163.196655 1533.741821,1165.865845 1535.245239,1168.953735 
	C1536.548706,1169.129761 1537.510498,1169.303101 1538.479980,1169.383789 
	C1547.348633,1170.122559 1548.881958,1171.542725 1549.529663,1179.981689 
	C1549.707397,1182.298706 1549.578857,1184.639771 1549.578979,1186.969727 
	C1549.580078,1205.277222 1549.578247,1223.584595 1549.577393,1241.892090 
	C1549.577148,1245.129272 1549.577271,1248.366455 1549.577271,1252.378174 
	C1557.819702,1252.055420 1565.035645,1253.334839 1572.458984,1249.378662 
	C1572.458984,1225.020752 1572.458984,1200.845703 1572.458984,1175.843506 
	C1579.008911,1173.994019 1584.927124,1171.813110 1591.039673,1170.699341 
	C1605.333374,1168.094727 1614.459351,1174.971436 1615.824341,1189.410767 
	C1616.479736,1196.342285 1616.149170,1203.371948 1616.169434,1210.357422 
	C1616.208740,1223.976074 1616.180908,1237.595093 1616.180908,1251.622192 
	C1624.040405,1252.673462 1631.437988,1253.386719 1639.515625,1248.765015 
	C1639.515625,1232.951294 1639.515625,1216.997803 1639.516235,1199.065674 
M544.722351,1230.905151 
	C544.722351,1237.781616 544.722351,1244.658203 544.722351,1251.952515 
	C553.003723,1252.535767 560.168274,1253.137695 567.856750,1249.221924 
	C567.856750,1226.077148 568.611938,1202.769653 567.595337,1179.539795 
	C566.899902,1163.650635 555.917236,1155.234253 539.944519,1155.847656 
	C536.647278,1155.974243 533.304260,1156.526489 530.108154,1157.363159 
	C520.854431,1159.786133 511.664764,1162.453613 502.140381,1165.111450 
	C501.025696,1162.225708 499.986969,1159.536499 498.773315,1156.394531 
	C487.001434,1156.427002 476.196960,1159.812378 465.363068,1162.661011 
	C461.701355,1163.623901 462.798370,1166.640137 464.495361,1169.044189 
	C477.178497,1169.900879 478.041229,1170.730103 478.077789,1183.212036 
	C478.136383,1203.211426 478.061768,1223.211304 478.121155,1243.210571 
	C478.129608,1246.056519 478.574127,1248.901123 478.838959,1252.005737 
	C483.929199,1252.005737 488.236389,1252.307373 492.486084,1251.941650 
	C500.743896,1251.230713 501.154572,1250.713135 501.187286,1242.018921 
	C501.257477,1223.353027 501.205383,1204.686646 501.203430,1186.020386 
	C501.203094,1182.766724 501.203400,1179.512939 501.203400,1176.198364 
	C505.296967,1174.699097 508.352295,1173.380249 511.525452,1172.473877 
	C514.719971,1171.561768 518.002502,1170.817505 521.297180,1170.420532 
	C534.418213,1168.839844 542.331543,1174.871704 544.319031,1188.018677 
	C544.913879,1191.954224 545.189453,1195.974976 545.187744,1199.956421 
	C545.183655,1209.615234 544.930542,1219.273926 544.722351,1230.905151 
M1228.013672,1093.009033 
	C1219.612061,1100.740356 1214.536255,1110.457031 1212.718262,1121.519287 
	C1211.268677,1130.340820 1211.089233,1139.379883 1210.524414,1148.333740 
	C1210.279663,1152.216187 1210.483398,1156.126953 1210.483398,1160.083496 
	C1205.130005,1160.888062 1200.924561,1161.520142 1196.521118,1162.182007 
	C1196.521118,1164.928467 1196.521118,1167.422241 1196.521118,1170.056030 
	C1201.312622,1170.319336 1205.535889,1170.551514 1210.484497,1170.823364 
	C1210.484497,1180.350098 1210.484497,1189.305176 1210.484497,1198.260376 
	C1210.484497,1207.247070 1210.280762,1216.239868 1210.542358,1225.218872 
	C1210.799561,1234.044922 1209.291870,1243.001099 1211.700073,1252.049561 
	C1219.367188,1252.388672 1226.573853,1253.310059 1234.119141,1248.923828 
	C1234.119141,1222.958252 1234.119141,1196.825073 1234.119141,1169.889648 
	C1243.902710,1169.889648 1252.735229,1169.889648 1261.804443,1169.889648 
	C1261.804443,1165.889160 1261.804443,1162.729614 1261.804443,1159.047852 
	C1252.375977,1159.047852 1243.529541,1159.047852 1234.591064,1159.047852 
	C1234.591064,1143.290283 1234.396973,1127.710327 1234.739624,1112.142334 
	C1234.816772,1108.639893 1236.471436,1105.048828 1237.925659,1101.728882 
	C1240.209106,1096.515991 1244.414429,1093.380737 1250.056152,1092.405029 
	C1258.412354,1090.959839 1263.477539,1094.544556 1264.926514,1102.882690 
	C1265.367920,1105.422974 1265.623901,1107.995605 1266.007446,1110.874146 
	C1269.147827,1110.874146 1271.790527,1111.102417 1274.379517,1110.826538 
	C1279.735840,1110.255493 1284.067139,1107.818481 1285.563721,1102.356445 
	C1287.066162,1096.873169 1286.217529,1091.457642 1281.456299,1087.891968 
	C1278.087402,1085.369019 1274.142212,1083.058594 1270.108276,1082.079834 
	C1254.851318,1078.378174 1241.164062,1082.191650 1228.013672,1093.009033 
M1670.350220,1164.965820 
	C1670.385010,1167.714844 1670.355347,1170.471436 1674.313354,1170.409424 
	C1677.839478,1170.354004 1681.367188,1170.397827 1685.976074,1170.397827 
	C1685.976074,1198.406860 1685.976074,1225.184448 1685.976074,1252.877075 
	C1693.957275,1252.148193 1700.757812,1251.527222 1708.407227,1250.828735 
	C1708.407227,1223.380127 1708.407227,1197.203003 1708.407227,1170.114746 
	C1718.186523,1170.114746 1727.031250,1170.114746 1736.300293,1170.114746 
	C1736.300293,1165.831909 1736.300293,1162.500000 1736.300293,1158.759155 
	C1726.533936,1158.759155 1717.739014,1158.759155 1708.692871,1158.759155 
	C1708.692871,1144.173706 1708.384521,1130.215942 1708.860840,1116.285034 
	C1709.026733,1111.429810 1710.717407,1106.484497 1712.463257,1101.864258 
	C1714.321533,1096.946655 1718.348755,1093.879517 1723.527100,1092.608521 
	C1732.506592,1090.404541 1738.396118,1094.440918 1739.722412,1103.658936 
	C1740.041626,1105.877441 1740.279297,1108.107788 1740.625977,1110.910522 
	C1743.672729,1110.910522 1746.308350,1111.175171 1748.870972,1110.855103 
	C1754.124756,1110.198730 1758.621948,1108.109985 1760.069458,1102.450073 
	C1761.585938,1096.520508 1760.659424,1090.886353 1755.395020,1087.249634 
	C1751.929810,1084.855835 1747.873657,1082.818237 1743.793823,1081.896606 
	C1721.214844,1076.795044 1698.058472,1089.265991 1690.364014,1111.611206 
	C1687.286133,1120.550049 1686.712891,1130.441162 1685.709351,1139.973511 
	C1685.027222,1146.453491 1685.579102,1153.063232 1685.579102,1159.284790 
	C1679.860107,1160.840820 1675.194458,1162.110352 1670.350220,1164.965820 
M1843.898071,1234.861694 
	C1845.620605,1232.028076 1847.596069,1229.316040 1849.025513,1226.341553 
	C1860.154419,1203.183105 1852.953735,1175.083252 1832.816528,1162.698853 
	C1800.362671,1142.739746 1757.815308,1164.043457 1754.601196,1201.861572 
	C1752.276245,1229.218018 1771.544312,1252.259033 1798.320557,1253.619751 
	C1815.747681,1254.505371 1831.157959,1249.577271 1843.898071,1234.861694 
M1083.972290,1234.865845 
	C1087.283325,1249.131348 1103.455688,1256.956177 1116.992920,1252.546509 
	C1125.477295,1249.782715 1134.089111,1247.410034 1142.660889,1244.856689 
	C1144.027344,1247.361328 1145.390747,1249.860596 1146.777222,1252.401855 
	C1153.676880,1251.992920 1160.380371,1253.563843 1165.355835,1250.251465 
	C1165.355835,1235.635132 1165.489502,1222.060425 1165.312256,1208.489746 
	C1165.177856,1198.209351 1165.445435,1187.828369 1164.099731,1177.682373 
	C1162.243286,1163.686279 1154.155640,1156.877075 1139.958496,1155.699097 
	C1122.921265,1154.285522 1107.125366,1159.184814 1091.684204,1165.635254 
	C1091.199829,1165.837646 1090.982056,1166.678467 1090.380737,1167.633179 
	C1091.329956,1169.663086 1092.381592,1171.912354 1093.331665,1173.944092 
	C1101.812134,1172.242554 1109.554565,1170.306152 1117.413452,1169.190308 
	C1135.074951,1166.682373 1142.416260,1173.167725 1142.435547,1190.818115 
	C1142.437744,1192.756836 1142.043579,1194.696167 1141.764282,1197.271118 
	C1137.567017,1197.470093 1133.607056,1197.379150 1129.728882,1197.898804 
	C1121.191650,1199.042603 1112.463989,1199.672852 1104.231812,1201.994385 
	C1087.720459,1206.650635 1082.014038,1216.021362 1083.972290,1234.865845 
M690.219482,1210.621948 
	C690.873718,1214.552246 691.206360,1218.568848 692.235168,1222.398438 
	C698.132324,1244.349854 717.838623,1257.063599 740.230652,1252.886108 
	C749.335632,1251.187500 758.247986,1248.326782 767.126465,1245.599365 
	C771.427429,1244.277832 775.447876,1242.043213 780.010315,1240.039917 
	C778.363281,1237.063354 777.324768,1235.186523 777.016296,1234.628906 
	C765.954407,1235.827759 756.080933,1238.081909 746.308228,1237.707153 
	C726.770142,1236.958008 713.145996,1221.317993 714.699585,1202.698730 
	C733.769653,1201.619995 752.904968,1200.537598 772.773315,1199.413696 
	C773.373169,1194.585205 774.267151,1190.380127 774.356079,1186.158081 
	C774.749146,1167.495728 763.715942,1156.195557 745.116394,1155.760742 
	C717.759033,1155.121460 689.624329,1174.319092 690.219482,1210.621948 
M2025.045898,1251.995850 
	C2036.063232,1248.511841 2047.080688,1245.027710 2059.087158,1241.230835 
	C2057.467285,1237.645386 2056.495605,1235.495239 2055.587646,1233.485718 
	C2016.404785,1243.660645 1990.341797,1230.412476 1994.244873,1202.701050 
	C2013.341309,1201.597778 2032.500244,1200.490723 2051.778320,1199.376953 
	C2052.566162,1195.190918 2053.337158,1191.956665 2053.736816,1188.677368 
	C2054.016846,1186.381470 2053.976318,1184.006104 2053.758789,1181.696411 
	C2052.420654,1167.495605 2042.840576,1157.433350 2028.834473,1156.076782 
	C2012.845459,1154.527954 1998.421143,1158.770752 1986.185059,1169.344360 
	C1969.257935,1183.971436 1964.455688,1209.898682 1974.571045,1230.669678 
	C1983.630127,1249.271851 2003.647339,1257.488037 2025.045898,1251.995850 
M835.906616,1127.000000 
	C835.905701,1114.026001 835.882019,1101.051880 835.917236,1088.078003 
	C835.928284,1084.021240 835.116272,1080.077393 830.105286,1080.909912 
	C820.291016,1082.540527 810.558655,1084.736450 800.876526,1087.050293 
	C797.454468,1087.868164 797.444641,1090.522949 799.075134,1093.178833 
	C811.981567,1094.937256 812.544006,1095.579102 812.783264,1108.812500 
	C812.825317,1111.140381 812.796326,1113.469727 812.796326,1115.798340 
	C812.795532,1157.714233 812.781555,1199.630127 812.815552,1241.546021 
	C812.818420,1245.043213 813.143982,1248.540161 813.324341,1252.131470 
	C818.181519,1252.131470 821.835693,1252.347046 825.456421,1252.090454 
	C835.604248,1251.371216 835.890015,1251.041138 835.897217,1240.775635 
	C835.923340,1203.517090 835.906982,1166.258545 835.906616,1127.000000 
M1475.235474,1129.315186 
	C1475.235962,1149.638062 1475.234253,1169.960938 1475.237305,1190.283813 
	C1475.240356,1210.809570 1475.248169,1231.335327 1475.253784,1252.065186 
	C1481.035889,1252.065186 1485.349121,1252.327637 1489.619629,1252.010986 
	C1498.778809,1251.331665 1499.171509,1250.921387 1499.181641,1241.892090 
	C1499.230347,1198.247925 1499.220825,1154.603638 1499.162231,1110.959473 
	C1499.158447,1108.101685 1498.572510,1105.244629 1498.108032,1101.032593 
	C1484.439941,1102.729370 1471.781128,1104.300903 1458.592529,1105.938232 
	C1459.244141,1109.301514 1459.605347,1111.165649 1460.066040,1113.543091 
	C1462.028198,1113.543091 1463.645874,1113.408447 1465.234497,1113.566162 
	C1472.512939,1114.288208 1473.663818,1115.313965 1474.987427,1122.415771 
	C1475.289185,1124.034668 1475.162476,1125.733276 1475.235474,1129.315186 
M924.492310,1237.681763 
	C909.923035,1234.920654 900.240662,1226.277954 897.213196,1211.981934 
	C895.464966,1203.726929 895.298706,1194.688232 896.596802,1186.340698 
	C898.618408,1173.341553 909.983948,1166.237793 923.176392,1167.952515 
	C929.560181,1168.782104 932.657837,1171.649780 933.748657,1177.965454 
	C934.236145,1180.787842 934.465515,1183.654907 934.878601,1187.048584 
	C937.822205,1187.048584 940.135925,1187.305420 942.371826,1186.997559 
	C947.800354,1186.250000 952.939514,1184.835205 954.855896,1178.725830 
	C956.855042,1172.353149 955.275391,1166.679932 950.419067,1162.411865 
	C947.776428,1160.089355 944.260010,1158.009155 940.869202,1157.451050 
	C934.377869,1156.382446 927.626465,1155.675049 921.102844,1156.229004 
	C890.496948,1158.828003 869.987305,1182.486938 872.195923,1212.046753 
	C874.362305,1241.040161 896.020935,1258.074097 924.319824,1252.193604 
	C935.310730,1249.909668 945.901672,1245.687988 956.648193,1242.265503 
	C957.482300,1241.999878 958.105103,1241.070801 959.109924,1240.205688 
	C958.127014,1238.146118 957.182434,1236.166870 956.777527,1235.318359 
	C945.895996,1236.222168 936.028442,1237.041748 924.492310,1237.681763 
M2126.216309,1157.296021 
	C2097.428223,1164.372070 2081.708984,1185.123413 2084.111816,1212.880371 
	C2086.573242,1241.319824 2108.044189,1257.960083 2135.978271,1252.206665 
	C2146.971680,1249.942505 2157.564453,1245.721924 2168.315186,1242.314331 
	C2169.167725,1242.044189 2169.826416,1241.161743 2170.896484,1240.307373 
	C2169.936523,1238.228149 2169.013672,1236.229004 2168.395264,1234.889893 
	C2159.116943,1236.011963 2150.593750,1237.834351 2142.055420,1237.906860 
	C2125.472900,1238.047852 2113.552490,1228.645752 2108.984131,1212.772705 
	C2106.459961,1204.001831 2106.042236,1195.026001 2108.256348,1186.119629 
	C2110.105225,1178.682983 2114.082520,1172.807861 2121.489746,1169.671875 
	C2135.887451,1163.575806 2144.526367,1168.634644 2146.007324,1184.119751 
	C2146.067871,1184.754028 2146.432861,1185.359253 2146.973877,1186.859619 
	C2149.557617,1186.859619 2152.508301,1187.224487 2155.338623,1186.794678 
	C2166.091064,1185.162231 2171.180908,1175.132690 2165.134521,1166.145386 
	C2162.588135,1162.360352 2157.754150,1158.605103 2153.431641,1157.846558 
	C2145.081299,1156.381348 2136.355957,1157.053101 2126.216309,1157.296021 
M1941.500488,1169.941284 
	C1945.815552,1167.056885 1944.006348,1163.311768 1943.490112,1159.096191 
	C1934.150146,1159.096191 1925.340454,1159.096191 1915.067139,1159.096191 
	C1915.067139,1149.607666 1915.067139,1140.536255 1915.067139,1129.623169 
	C1907.640991,1131.865356 1902.030884,1133.515259 1896.450439,1135.260254 
	C1892.996826,1136.340332 1892.205811,1139.033936 1892.256226,1142.325806 
	C1892.346802,1148.239502 1892.281860,1154.155518 1892.281860,1160.160034 
	C1886.975342,1160.882568 1882.725708,1161.461182 1878.122559,1162.087891 
	C1878.122559,1164.762329 1878.122559,1167.245850 1878.122559,1170.094238 
	C1882.818481,1170.324829 1887.058105,1170.533081 1892.278076,1170.789429 
	C1892.278076,1174.359253 1892.277832,1177.601440 1892.278076,1180.843750 
	C1892.279297,1196.162842 1892.041382,1211.486694 1892.344727,1226.799805 
	C1892.698364,1244.655518 1904.789429,1256.222168 1921.004639,1253.323364 
	C1931.303345,1251.482300 1941.212402,1247.461060 1951.942139,1244.222534 
	C1950.568481,1240.508301 1949.725098,1238.227661 1948.896729,1235.987671 
	C1943.632202,1237.089844 1939.145508,1238.372925 1934.570801,1238.920898 
	C1922.037964,1240.422241 1915.687134,1234.849365 1915.556396,1222.195190 
	C1915.398071,1206.877686 1915.495605,1191.557251 1915.554932,1176.238403 
	C1915.562134,1174.371216 1916.017822,1172.505737 1916.341919,1170.065674 
	C1924.556519,1170.065674 1932.167114,1170.065674 1941.500488,1169.941284 
M1278.977783,1169.928101 
	C1283.222900,1170.251221 1287.468018,1170.574341 1292.484131,1170.956177 
	C1292.484131,1187.248901 1292.435669,1203.198608 1292.516113,1219.147705 
	C1292.537842,1223.460938 1292.541870,1227.841187 1293.255127,1232.072510 
	C1295.932739,1247.955444 1307.967163,1256.510742 1323.631348,1252.913330 
	C1332.637939,1250.844971 1341.269165,1247.134521 1350.048218,1244.101685 
	C1350.577881,1243.918579 1350.919312,1243.190186 1351.768677,1242.250488 
	C1350.852661,1240.254517 1349.835083,1238.037476 1348.953125,1236.115967 
	C1342.981323,1237.235718 1337.807983,1238.780396 1332.566162,1239.066406 
	C1322.326660,1239.624878 1316.082764,1234.463501 1315.913208,1224.824463 
	C1315.603027,1207.191284 1315.975098,1189.545654 1316.132935,1171.905884 
	C1316.137207,1171.418823 1316.940308,1170.938721 1317.806030,1169.966797 
	C1325.975586,1169.966797 1334.577637,1169.966797 1343.584961,1169.966797 
	C1343.584961,1166.054688 1343.584961,1162.645874 1343.584961,1158.900146 
	C1334.025146,1158.900146 1325.231812,1158.900146 1316.481445,1158.900146 
	C1314.245361,1149.475830 1317.626343,1140.009644 1313.989380,1130.234863 
	C1308.674072,1131.685913 1303.970947,1133.014038 1299.243408,1134.248291 
	C1294.356323,1135.524170 1292.135864,1138.453491 1292.420166,1143.653564 
	C1292.721191,1149.159546 1292.487549,1154.694824 1292.487549,1160.115601 
	C1286.869019,1160.948120 1282.666870,1161.570923 1278.073364,1162.251587 
	C1278.073364,1164.596313 1278.073364,1166.550171 1278.977783,1169.928101 
M606.123352,1161.170166 
	C603.596497,1161.530029 601.069641,1161.889771 598.175903,1162.301758 
	C598.393250,1165.244019 598.556580,1167.455078 598.741333,1169.956421 
	C603.428345,1170.259277 607.666382,1170.533081 613.234619,1170.892822 
	C613.234619,1174.670898 613.224854,1178.229980 613.236206,1181.789185 
	C613.286926,1197.760986 612.827393,1213.756104 613.543335,1229.698242 
	C614.261902,1245.698486 626.503845,1256.098267 641.697266,1253.344482 
	C651.984802,1251.479858 661.886047,1247.483398 672.694824,1244.218506 
	C671.284912,1240.533447 670.417358,1238.265991 669.549316,1235.997314 
	C664.324402,1237.100830 659.848267,1238.348877 655.286926,1238.946655 
	C645.641602,1240.210938 635.665344,1236.199463 636.004395,1222.205200 
	C636.375061,1206.906250 636.059204,1191.591187 636.124939,1176.283447 
	C636.132996,1174.411011 636.650452,1172.540649 637.061218,1169.808838 
	C646.300659,1169.808838 655.109253,1169.808838 664.193481,1169.808838 
	C664.193481,1165.741699 664.193481,1162.629028 664.193481,1159.017822 
	C654.629578,1159.017822 645.794922,1159.017822 635.628540,1159.017822 
	C635.628540,1149.553711 635.628540,1140.471313 635.628540,1130.736328 
	C632.653015,1131.077637 631.055542,1131.124634 629.520142,1131.457886 
	C613.396912,1134.956787 613.399780,1134.969482 613.233887,1151.442871 
	C613.217163,1153.106567 613.138550,1154.772217 613.193726,1156.433594 
	C613.317627,1160.162842 610.663757,1160.583008 606.123352,1161.170166 
M415.139404,1102.250366 
	C406.054535,1103.563843 396.969666,1104.877441 387.974304,1106.177979 
	C387.974304,1108.450806 387.827759,1109.472656 388.016632,1110.428223 
	C388.195648,1111.333862 388.726196,1112.169922 389.218231,1113.304199 
	C390.937744,1113.387817 392.577728,1113.378052 394.195740,1113.561768 
	C401.550903,1114.396729 403.343109,1116.221680 403.865692,1123.547363 
	C404.031250,1125.867798 403.919128,1128.208862 403.919220,1130.540405 
	C403.920959,1167.181763 403.920258,1203.823120 403.920074,1240.464478 
	C403.920074,1244.063477 403.920074,1247.662354 403.920074,1252.685059 
	C412.291779,1252.065308 419.675293,1251.518677 427.243286,1250.958496 
	C427.243286,1200.761108 427.243286,1151.979370 427.243286,1102.113647 
	C423.380707,1102.113647 420.174927,1102.113647 415.139404,1102.250366 
M1044.412231,1176.800415 
	C1045.003052,1179.278076 1045.593750,1181.755737 1046.184448,1184.233276 
	C1049.413818,1184.233276 1052.114014,1184.558716 1054.707886,1184.171753 
	C1062.328125,1183.035156 1066.720703,1177.306763 1066.410278,1169.334839 
	C1066.108643,1161.590820 1061.027466,1156.147705 1053.214966,1155.919678 
	C1049.625732,1155.814941 1045.826660,1156.283447 1042.435303,1157.422485 
	C1035.836182,1159.639160 1029.466553,1162.535156 1022.975708,1165.083130 
	C1022.188171,1165.392334 1021.239197,1165.289917 1020.539368,1165.360718 
	C1019.716248,1162.262085 1018.976990,1159.479004 1017.866394,1155.298340 
	C1006.259460,1157.725220 995.253357,1159.885498 984.325928,1162.389160 
	C980.584473,1163.246460 981.337952,1166.095825 982.835571,1169.335938 
	C984.193726,1169.335938 985.780518,1169.202759 987.338318,1169.358887 
	C994.414185,1170.067627 995.794250,1171.465820 996.378601,1178.630127 
	C996.567688,1180.947754 996.479980,1183.289673 996.480774,1185.620483 
	C996.486938,1204.605103 996.451782,1223.589966 996.515930,1242.574341 
	C996.526611,1245.724243 996.958923,1248.872925 997.192871,1251.975586 
	C1002.721069,1251.975586 1007.050842,1252.286621 1011.319458,1251.907959 
	C1019.159058,1251.212646 1019.644165,1250.634399 1019.694153,1242.736572 
	C1019.789001,1227.749146 1019.721802,1212.760864 1019.721802,1197.772949 
	C1019.721863,1190.825195 1019.721802,1183.877563 1019.721802,1176.317505 
	C1024.999023,1174.619751 1029.606567,1172.843994 1034.365845,1171.700684 
	C1038.075928,1170.809326 1041.720581,1171.370239 1044.412231,1176.800415 
z"/>
<path fill="#FB10C4" opacity="1.000000" stroke="none" 
	d="
M355.535339,1449.197266 
	C360.723969,1421.318359 373.456390,1396.967529 391.726776,1375.716064 
	C423.356323,1338.925659 463.695343,1318.130127 512.113953,1314.407349 
	C585.881042,1308.735474 652.770508,1349.817749 681.901428,1416.695312 
	C684.149231,1421.855835 685.825867,1427.265137 687.817749,1434.172119 
	C688.060486,1437.760864 688.083069,1439.770386 688.472168,1441.706299 
	C694.824097,1473.314453 694.376221,1504.600952 684.275085,1535.477173 
	C683.364502,1538.260864 682.916626,1541.196045 682.045471,1544.730469 
	C661.767883,1590.424438 629.277100,1622.721069 583.174744,1640.628662 
	C566.795044,1646.990967 549.877747,1651.871582 531.454285,1651.959961 
	C530.529541,1651.987427 530.169128,1652.113892 528.971985,1652.349976 
	C524.206421,1652.452637 520.277649,1652.445557 515.546875,1652.185059 
	C513.088196,1652.064331 511.431610,1652.196899 508.984009,1652.348145 
	C506.104462,1652.099121 504.015900,1651.831543 501.485565,1651.043457 
	C499.260437,1650.519775 497.477020,1650.516235 494.953308,1650.498291 
	C491.394531,1649.873657 488.576111,1649.263306 485.528687,1648.000977 
	C483.582672,1646.921021 481.865631,1646.492920 479.319031,1646.029419 
	C474.236664,1644.944824 469.983826,1643.895630 465.568115,1642.667236 
	C465.405304,1642.488037 464.561829,1642.011719 463.854340,1641.738037 
	C448.181610,1636.561523 435.030029,1628.346191 422.025055,1619.664185 
	C416.092987,1615.703857 412.298523,1608.435547 404.178772,1607.806641 
	C404.178772,1607.806641 404.051392,1607.927246 403.861694,1607.247070 
	C400.444702,1603.496826 397.217346,1600.426758 393.990051,1597.356689 
	C393.990082,1597.356689 393.850372,1597.249756 393.862915,1596.494385 
	C393.049530,1594.017700 393.966522,1590.017456 389.820129,1592.637451 
	C389.266907,1592.131958 388.713654,1591.626343 388.101807,1589.765991 
	C388.188782,1579.963013 382.968781,1575.395142 376.158539,1571.977295 
	C376.158539,1571.977295 375.666351,1571.506592 375.701477,1570.400269 
	C374.780273,1568.322754 373.823944,1567.351685 372.867615,1566.380493 
	C372.867615,1566.380493 372.262634,1565.928711 372.095276,1565.395996 
	C371.927887,1564.863403 371.500671,1564.273438 371.500671,1564.273438 
	C370.517365,1562.635132 369.534027,1560.996948 368.881470,1558.251587 
	C368.463623,1556.235596 367.714966,1555.326660 366.966339,1554.417725 
	C366.088684,1552.638916 365.211029,1550.860229 364.935394,1548.213379 
	C370.284851,1543.358765 374.892120,1544.556763 378.644287,1548.490601 
	C382.341278,1552.366577 387.484711,1555.834229 384.776978,1562.825684 
	C382.978180,1567.470093 383.800995,1571.950195 388.247498,1575.918091 
	C394.496124,1572.525391 398.338654,1575.543091 403.049957,1580.488403 
	C407.360901,1585.013550 411.184357,1588.555786 408.818817,1594.816650 
	C411.877808,1595.140381 415.768066,1594.946533 415.948608,1595.673706 
	C416.831696,1599.230713 416.725983,1603.033081 417.013550,1607.414185 
	C421.856659,1609.223145 426.984314,1611.138306 432.574921,1613.226440 
	C433.599274,1610.903809 434.601685,1608.630859 435.578369,1606.416382 
	C440.296600,1606.079834 444.535461,1605.777588 448.955872,1605.462280 
	C446.791138,1594.988281 444.736633,1585.047729 442.515045,1574.298584 
	C445.361298,1574.471558 447.559845,1573.998901 449.077911,1574.806030 
	C454.607300,1577.745850 459.826385,1581.265259 465.324829,1584.268799 
	C469.278046,1586.428223 473.439789,1588.234375 477.604004,1589.968750 
	C480.274078,1591.080811 483.062408,1592.077271 485.894745,1592.598755 
	C493.233429,1593.949829 500.072876,1599.864868 507.737335,1596.867554 
	C515.070557,1593.999634 521.913391,1594.384521 528.931641,1596.639404 
	C538.340210,1599.662354 547.069580,1596.516724 554.412781,1591.901489 
	C561.153442,1587.664917 567.188965,1583.476807 575.274414,1581.361572 
	C582.901428,1579.366211 589.546387,1573.631958 596.641785,1569.574585 
	C597.793030,1568.916260 599.319763,1568.698853 600.191223,1567.807007 
	C602.906799,1565.027954 606.147522,1562.397583 607.815735,1559.031128 
	C611.956360,1550.675537 616.210388,1542.558472 622.937805,1535.879883 
	C624.975708,1533.856567 626.953552,1531.027100 627.423950,1528.302002 
	C629.272644,1517.590332 630.509277,1506.773193 632.828369,1495.996582 
	C639.334229,1496.137817 644.933289,1496.079956 650.352417,1491.328979 
	C649.017578,1487.956665 647.618652,1484.422363 646.053589,1480.468384 
	C648.620789,1476.194580 651.658875,1471.667358 648.937988,1466.002563 
	C641.348572,1450.202271 638.178345,1432.632690 628.870056,1417.443604 
	C622.912659,1407.722412 616.602539,1398.730957 606.891113,1392.370605 
	C603.051147,1389.855713 599.867065,1386.350464 596.325562,1383.365967 
	C591.061096,1378.928955 586.674988,1373.472534 579.464172,1371.516113 
	C564.168701,1367.365967 549.031433,1362.634644 533.758118,1358.398438 
	C531.306763,1357.718384 528.467651,1358.166870 525.841858,1358.431763 
	C514.681091,1359.557861 503.501404,1360.582031 492.395477,1362.124634 
	C487.588898,1362.792236 482.582489,1363.915405 478.310455,1366.093872 
	C471.850098,1369.388184 466.233551,1374.374146 458.365753,1374.349487 
	C457.227814,1374.345947 455.850616,1375.333740 454.985382,1376.244263 
	C450.478790,1380.986206 446.194458,1385.940552 441.656494,1390.651123 
	C436.131256,1396.386475 430.437561,1401.959839 424.801453,1407.588013 
	C423.194794,1409.192505 420.889313,1410.449219 420.011292,1412.371094 
	C416.033844,1421.077637 412.039490,1429.818726 408.841278,1438.827759 
	C405.444519,1448.395996 402.938263,1458.280396 399.256714,1468.008789 
	C386.349335,1464.326904 374.214264,1460.708618 362.115875,1456.971436 
	C358.366577,1455.813477 355.999298,1453.252441 355.535339,1449.197266 
z"/>
<path fill="#F92FBB" opacity="1.000000" stroke="none" 
	d="
M354.992004,1449.721924 
	C355.999298,1453.252441 358.366577,1455.813477 362.115875,1456.971436 
	C374.214264,1460.708618 386.349335,1464.326904 399.951599,1468.308105 
	C413.612854,1471.752075 425.659210,1475.636230 438.006500,1477.814697 
	C453.503021,1480.548828 468.928192,1483.658813 484.429718,1486.316040 
	C498.404877,1488.711914 512.530029,1490.267456 526.616394,1491.966797 
	C534.489014,1492.916504 542.419250,1493.382935 550.319885,1494.106934 
	C556.895508,1494.709473 563.460388,1495.842407 570.039368,1495.917236 
	C590.681580,1496.152100 611.328247,1495.998291 631.973145,1495.995117 
	C630.509277,1506.773193 629.272644,1517.590332 627.423950,1528.302002 
	C626.953552,1531.027100 624.975708,1533.856567 622.937805,1535.879883 
	C616.210388,1542.558472 611.956360,1550.675537 607.815735,1559.031128 
	C606.147522,1562.397583 602.906799,1565.027954 600.191223,1567.807007 
	C599.319763,1568.698853 597.793030,1568.916260 596.641785,1569.574585 
	C589.546387,1573.631958 582.901428,1579.366211 575.274414,1581.361572 
	C567.188965,1583.476807 561.153442,1587.664917 554.412781,1591.901489 
	C547.069580,1596.516724 538.340210,1599.662354 528.931641,1596.639404 
	C521.913391,1594.384521 515.070557,1593.999634 507.737335,1596.867554 
	C500.072876,1599.864868 493.233429,1593.949829 485.894745,1592.598755 
	C483.062408,1592.077271 480.274078,1591.080811 477.604004,1589.968750 
	C473.439789,1588.234375 469.278046,1586.428223 465.324829,1584.268799 
	C459.826385,1581.265259 454.607300,1577.745850 449.077911,1574.806030 
	C447.559845,1573.998901 445.361298,1574.471558 442.515045,1574.298584 
	C444.736633,1585.047729 446.791138,1594.988281 448.955872,1605.462280 
	C444.535461,1605.777588 440.296600,1606.079834 435.578369,1606.416382 
	C434.601685,1608.630859 433.599274,1610.903809 432.574921,1613.226440 
	C426.984314,1611.138306 421.856659,1609.223145 417.013550,1607.414185 
	C416.725983,1603.033081 416.831696,1599.230713 415.948608,1595.673706 
	C415.768066,1594.946533 411.877808,1595.140381 408.818817,1594.816650 
	C411.184357,1588.555786 407.360901,1585.013550 403.049957,1580.488403 
	C398.338654,1575.543091 394.496124,1572.525391 388.247498,1575.918091 
	C383.800995,1571.950195 382.978180,1567.470093 384.776978,1562.825684 
	C387.484711,1555.834229 382.341278,1552.366577 378.644287,1548.490601 
	C374.892120,1544.556763 370.284851,1543.358765 364.933716,1547.605713 
	C360.811768,1537.668945 355.988159,1527.710327 354.073059,1517.220825 
	C350.992889,1500.349976 348.929199,1483.173462 352.420166,1465.926514 
	C353.463104,1460.774048 353.792358,1455.477173 354.992004,1449.721924 
z"/>
<path fill="#BB51A7" opacity="1.000000" stroke="none" 
	d="
M152.373154,1473.307007 
	C139.548416,1467.857178 129.401138,1458.667114 120.330803,1448.597046 
	C103.388573,1429.787231 91.505028,1407.989136 86.745148,1382.933960 
	C79.254524,1343.504395 88.274902,1307.959717 113.061485,1276.360107 
	C123.444420,1263.123291 135.928635,1252.421387 151.800247,1244.460449 
	C162.089462,1262.569214 171.054382,1280.394653 180.204773,1298.124512 
	C181.661774,1300.947510 183.952454,1303.340210 185.972046,1306.635498 
	C186.856339,1309.585327 187.626312,1311.831299 187.712769,1313.989258 
	C185.103989,1312.780762 183.178726,1311.660156 180.043320,1309.835205 
	C177.404984,1315.141968 175.012527,1320.073120 172.513016,1324.949341 
	C169.791168,1330.259644 165.351532,1335.269165 164.491196,1340.846436 
	C161.747025,1358.636230 165.244598,1375.502930 178.080444,1388.826172 
	C189.507996,1400.687622 202.819061,1407.851807 220.725510,1404.411621 
	C230.384186,1402.556152 238.790527,1400.641357 244.685364,1391.854736 
	C248.913788,1394.090210 252.464417,1396.145874 256.334290,1398.779297 
	C260.117920,1402.418701 263.319916,1405.859131 267.094147,1408.473511 
	C280.378754,1417.675537 293.809753,1426.669678 307.289764,1435.584595 
	C313.153870,1439.462891 317.358765,1438.946289 321.154907,1433.685669 
	C337.641693,1410.838257 347.630920,1385.622192 348.153564,1357.141968 
	C348.306091,1348.831543 348.021912,1340.513306 347.937866,1332.198608 
	C352.848511,1341.080444 351.666412,1350.960205 351.759338,1360.372437 
	C352.008575,1385.609741 344.982880,1409.155762 330.754913,1429.913208 
	C323.716522,1440.181641 314.242340,1448.780518 304.787994,1457.782837 
	C301.613007,1457.540649 299.176239,1457.000244 297.495819,1457.889282 
	C293.418793,1460.046143 289.630280,1462.777954 285.838104,1465.438477 
	C271.688446,1475.365601 255.367752,1480.355713 238.881104,1483.487915 
	C226.487244,1485.842529 213.709625,1486.677368 200.549774,1484.583618 
	C187.336548,1482.481323 174.687439,1479.715576 162.534195,1474.323975 
	C159.274689,1472.877808 156.072311,1470.510254 152.373154,1473.307007 
z"/>
<path fill="#B11C94" opacity="1.000000" stroke="none" 
	d="
M185.857758,1305.931763 
	C183.952454,1303.340210 181.661774,1300.947510 180.204773,1298.124512 
	C171.054382,1280.394653 162.089462,1262.569214 152.493256,1244.362061 
	C162.165771,1235.337036 174.797974,1231.677734 187.268509,1228.897095 
	C243.939590,1216.260376 298.677521,1238.052002 329.499664,1285.923218 
	C334.658844,1293.936035 338.023010,1303.104614 342.270325,1313.149902 
	C342.973572,1315.749390 343.623138,1316.938110 344.272705,1318.126709 
	C344.510803,1318.717773 344.710632,1319.321533 344.668213,1321.129761 
	C345.409760,1324.274658 346.355225,1326.227783 347.300659,1328.180908 
	C347.470673,1329.068726 347.640656,1329.956421 347.874268,1331.521484 
	C348.021912,1340.513306 348.306091,1348.831543 348.153564,1357.141968 
	C347.630920,1385.622192 337.641693,1410.838257 321.154907,1433.685669 
	C317.358765,1438.946289 313.153870,1439.462891 307.289764,1435.584595 
	C293.809753,1426.669678 280.378754,1417.675537 267.094147,1408.473511 
	C263.319916,1405.859131 260.117920,1402.418701 256.597656,1398.139893 
	C266.012848,1388.317993 270.725983,1377.096680 273.176300,1364.964233 
	C274.198578,1359.902588 274.160400,1354.331787 273.248383,1349.235229 
	C271.264771,1338.150513 266.676544,1328.039917 259.559509,1319.155396 
	C249.148193,1306.158447 227.004578,1294.319458 206.814468,1300.664673 
	C199.954651,1302.820557 192.850357,1304.198364 185.857758,1305.931763 
z"/>
<path fill="#A058C6" opacity="1.000000" stroke="none" 
	d="
M135.829742,1199.671143 
	C120.938179,1201.800049 106.697655,1199.006714 93.214325,1192.961548 
	C56.655933,1176.570557 36.665817,1147.931641 31.954647,1108.379272 
	C26.149843,1059.645386 61.981594,1014.658508 106.390457,1003.947693 
	C120.411163,1000.566040 134.465744,998.277893 149.263885,1003.493530 
	C148.052429,1010.571960 145.901886,1016.503723 144.707596,1022.622192 
	C142.813019,1032.328369 141.492462,1042.149658 140.063354,1051.942017 
	C139.477371,1055.957153 140.946335,1059.978394 144.704697,1060.966675 
	C154.607407,1063.570801 159.570709,1071.351074 165.604706,1078.402710 
	C169.772995,1083.273926 171.595352,1088.508057 171.966965,1094.612061 
	C172.654633,1105.907471 170.425858,1115.893921 162.760773,1125.076294 
	C154.321487,1135.186157 145.891266,1143.621460 130.841614,1140.427490 
	C127.940063,1159.328247 133.050613,1176.917603 136.116852,1195.304077 
	C135.995453,1197.172119 135.912598,1198.421631 135.829742,1199.671143 
z"/>
<path fill="#BCFA4C" opacity="1.000000" stroke="none" 
	d="
M1039.203247,960.335327 
	C1037.104370,942.437012 1041.772705,925.974121 1051.190186,911.086731 
	C1069.343994,882.388550 1096.029785,867.661133 1129.785156,869.053650 
	C1150.615112,869.912964 1169.620117,877.445618 1184.047974,894.386841 
	C1193.335938,905.292786 1203.034424,915.581360 1206.629150,931.523865 
	C1207.236084,936.839111 1207.615723,940.675842 1207.195801,944.413696 
	C1204.804199,944.756592 1203.237793,945.359192 1201.616577,945.615417 
	C1183.695190,948.447021 1165.759644,951.188721 1147.840454,954.034241 
	C1140.344482,955.224670 1132.916382,957.391479 1125.391968,957.751587 
	C1102.227905,958.860229 1079.032593,959.322937 1055.848633,960.008789 
	C1050.301758,960.172852 1044.751831,960.229370 1039.203247,960.335327 
z"/>
<path fill="#7511A8" opacity="1.000000" stroke="none" 
	d="
M136.155411,1194.685547 
	C133.050613,1176.917603 127.940063,1159.328247 130.841614,1140.427490 
	C145.891266,1143.621460 154.321487,1135.186157 162.760773,1125.076294 
	C170.425858,1115.893921 172.654633,1105.907471 171.966965,1094.612061 
	C171.595352,1088.508057 169.772995,1083.273926 165.604706,1078.402710 
	C159.570709,1071.351074 154.607407,1063.570801 144.704697,1060.966675 
	C140.946335,1059.978394 139.477371,1055.957153 140.063354,1051.942017 
	C141.492462,1042.149658 142.813019,1032.328369 144.707596,1022.622192 
	C145.901886,1016.503723 148.052429,1010.571960 150.030487,1003.902283 
	C170.698380,1005.379272 187.110657,1015.540771 201.305420,1029.506348 
	C214.573013,1042.559937 223.365295,1058.410645 227.588089,1076.604248 
	C228.387466,1080.048340 228.146210,1083.733887 228.614441,1088.837891 
	C229.179077,1108.160767 226.841797,1125.409180 218.056259,1141.245117 
	C200.179916,1173.467285 173.108307,1191.665405 136.155411,1194.685547 
z"/>
<path fill="#A4F404" opacity="1.000000" stroke="none" 
	d="
M1038.994751,961.085938 
	C1044.751831,960.229370 1050.301758,960.172852 1055.848633,960.008789 
	C1079.032593,959.322937 1102.227905,958.860229 1125.391968,957.751587 
	C1132.916382,957.391479 1140.344482,955.224670 1147.840454,954.034241 
	C1165.759644,951.188721 1183.695190,948.447021 1201.616577,945.615417 
	C1203.237793,945.359192 1204.804199,944.756592 1207.284424,945.263428 
	C1208.656738,976.343384 1198.118530,1001.458923 1173.699707,1019.766174 
	C1148.284058,1038.820801 1120.368042,1041.749634 1090.734009,1031.205078 
	C1077.592773,1026.529175 1067.535522,1017.325684 1057.292847,1008.396851 
	C1056.885376,1007.959595 1056.477783,1007.522339 1055.577881,1005.855347 
	C1054.175049,1003.554443 1053.264404,1002.483215 1052.353882,1001.411987 
	C1051.931396,1000.796204 1051.508911,1000.180481 1050.788574,998.588196 
	C1050.490845,997.611694 1050.040527,997.153015 1050.040527,997.153015 
	C1043.049805,986.413086 1039.758545,974.494263 1038.994751,961.085938 
z"/>
<path fill="#308754" opacity="1.000000" stroke="none" 
	d="
M782.187012,862.638306 
	C815.473999,863.399292 834.541809,886.214783 838.955627,912.543640 
	C843.348450,938.747314 826.584717,964.456909 800.518250,972.749268 
	C777.583313,980.045410 753.140015,970.953308 738.591675,950.108521 
	C719.964966,923.420410 727.246765,888.200989 754.081299,872.210144 
	C762.434021,867.232849 771.158386,862.752869 782.187012,862.638306 
z"/>
<path fill="#A058C6" opacity="1.000000" stroke="none" 
	d="
M175.709625,932.209045 
	C174.394470,931.257568 172.726746,930.563965 171.815201,929.317444 
	C142.996826,889.903809 156.148117,840.760010 195.096237,819.898926 
	C227.459900,802.564453 269.699402,812.087708 289.269745,845.192993 
	C275.894409,853.163696 262.880890,860.126831 250.322021,867.830994 
	C246.667603,870.072754 246.080048,874.298706 247.307831,879.302979 
	C250.331223,891.625793 244.500290,900.246277 232.532806,904.285156 
	C224.671204,906.938171 219.629120,901.659119 212.824387,898.400452 
	C204.851669,903.865662 196.625015,908.986877 190.930298,918.360718 
	C187.633713,923.787109 185.062073,932.446777 175.709625,932.209045 
z"/>
<path fill="#A4F404" opacity="1.000000" stroke="none" 
	d="
M878.041321,998.340759 
	C865.213501,981.339050 861.346680,962.380371 866.719727,940.973633 
	C875.501526,941.983582 883.208557,943.717896 890.943787,945.315430 
	C910.934998,949.444214 930.792908,954.622498 950.980957,957.272949 
	C968.918274,959.627869 987.227234,959.152283 1005.543823,960.720459 
	C1004.451294,966.985718 1003.760559,972.668213 1001.832092,977.893982 
	C986.304810,1019.969543 937.736328,1036.098877 901.791931,1016.880188 
	C893.746765,1012.578613 886.955017,1005.933044 879.586182,1000.366638 
	C879.586182,1000.366638 879.653992,1000.066650 879.488159,999.805969 
	C879.031250,998.999146 878.604248,998.597595 878.041321,998.340759 
z"/>
<path fill="#BCFA4C" opacity="1.000000" stroke="none" 
	d="
M1005.372131,959.926025 
	C987.227234,959.152283 968.918274,959.627869 950.980957,957.272949 
	C930.792908,954.622498 910.934998,949.444214 890.943787,945.315430 
	C883.208557,943.717896 875.501526,941.983582 867.025513,940.210938 
	C876.355530,893.675781 934.129211,865.786499 978.963684,897.681885 
	C992.548523,907.346130 1001.119202,921.484985 1006.347534,939.124512 
	C1006.148010,947.129944 1005.760071,953.528015 1005.372131,959.926025 
z"/>
<path fill="#7511A8" opacity="1.000000" stroke="none" 
	d="
M175.980957,932.817383 
	C185.062073,932.446777 187.633713,923.787109 190.930298,918.360718 
	C196.625015,908.986877 204.851669,903.865662 212.824387,898.400452 
	C219.629120,901.659119 224.671204,906.938171 232.532806,904.285156 
	C244.500290,900.246277 250.331223,891.625793 247.307831,879.302979 
	C246.080048,874.298706 246.667603,870.072754 250.322021,867.830994 
	C262.880890,860.126831 275.894409,853.163696 289.486877,845.840149 
	C309.871704,874.706848 305.833099,915.635315 277.087860,940.532471 
	C250.377930,963.666748 211.104813,964.301575 184.410980,942.115845 
	C181.378555,939.595520 178.957092,936.340149 175.980957,932.817383 
z"/>
<path fill="#3316B0" opacity="1.000000" stroke="none" 
	d="
M2253.799316,1157.761230 
	C2255.291016,1157.434937 2255.930908,1157.241577 2256.582520,1157.107788 
	C2280.923828,1152.114502 2293.800293,1162.464600 2293.871582,1187.359009 
	C2293.923828,1205.679321 2293.692871,1224.000977 2293.495605,1242.321045 
	C2293.406250,1250.627319 2292.848389,1251.268311 2284.400635,1251.959961 
	C2280.164551,1252.306763 2275.876465,1252.020264 2270.598145,1252.020264 
	C2270.598145,1239.373535 2270.635010,1227.187744 2270.585693,1215.002197 
	C2270.550537,1206.349609 2270.953613,1197.647339 2270.174072,1189.056641 
	C2268.897949,1174.991821 2260.045898,1168.461914 2246.175537,1170.491455 
	C2244.862549,1170.683472 2243.584229,1171.100830 2242.283203,1171.383179 
	C2226.763916,1174.750000 2226.763428,1174.748413 2226.763184,1190.815430 
	C2226.763184,1207.140381 2226.763672,1223.465454 2226.763916,1239.790405 
	C2226.763916,1243.061157 2226.763916,1246.332031 2226.763916,1250.966187 
	C2218.900635,1251.529175 2211.876221,1252.032104 2203.919434,1252.601685 
	C2203.919434,1247.599243 2203.919678,1243.989258 2203.919678,1240.379395 
	C2203.920166,1198.067749 2203.920410,1155.756104 2203.920654,1113.444458 
	C2203.920654,1111.445557 2203.937012,1109.446289 2203.915771,1107.447632 
	C2203.790039,1095.523926 2202.914307,1094.593140 2190.864746,1093.618286 
	C2188.730957,1090.673340 2188.521729,1087.771851 2192.595459,1086.797363 
	C2201.970703,1084.554688 2211.438477,1082.674683 2220.914062,1080.888672 
	C2224.509033,1080.211060 2226.629639,1082.060059 2226.707520,1085.860229 
	C2226.755371,1088.191284 2226.762939,1090.523560 2226.763428,1092.855225 
	C2226.766602,1113.511230 2226.764160,1134.167358 2226.763184,1154.823364 
	C2226.763184,1158.038452 2226.763184,1161.253662 2226.763184,1165.534302 
	C2236.474365,1162.711670 2244.713623,1160.316895 2253.799316,1157.761230 
z"/>
<path fill="#308754" opacity="1.000000" stroke="none" 
	d="
M669.109009,927.297241 
	C643.908081,930.723938 620.872192,911.167236 618.530701,883.785522 
	C617.859680,875.938538 620.084961,868.347839 624.983459,861.335876 
	C630.416443,853.558838 636.202942,846.719360 645.042175,842.937073 
	C670.648254,831.980347 697.961304,847.049866 704.606506,875.495361 
	C709.871277,898.031372 696.333069,922.387390 669.109009,927.297241 
z"/>
<path fill="#3316B0" opacity="1.000000" stroke="none" 
	d="
M456.398041,817.681396 
	C456.645172,821.757080 456.892273,825.832764 456.652771,831.282715 
	C456.158478,833.418701 456.150818,834.180420 456.143127,834.942139 
	C449.117859,866.179016 423.574799,883.809875 392.135376,879.122803 
	C367.742310,875.486267 347.697174,851.275269 348.829468,824.697754 
	C354.770996,823.062866 360.828003,826.122314 364.819427,819.645508 
	C374.187225,818.994080 382.678040,817.926697 391.196503,817.615784 
	C406.587616,817.054138 421.995239,816.944519 438.294678,816.968872 
	C444.928253,817.421570 450.663147,817.551514 456.398041,817.681396 
z"/>
<path fill="#3316B0" opacity="1.000000" stroke="none" 
	d="
M1639.515869,1200.055054 
	C1639.515625,1216.997803 1639.515625,1232.951294 1639.515625,1248.765015 
	C1631.437988,1253.386719 1624.040405,1252.673462 1616.180908,1251.622192 
	C1616.180908,1237.595093 1616.208740,1223.976074 1616.169434,1210.357422 
	C1616.149170,1203.371948 1616.479736,1196.342285 1615.824341,1189.410767 
	C1614.459351,1174.971436 1605.333374,1168.094727 1591.039673,1170.699341 
	C1584.927124,1171.813110 1579.008911,1173.994019 1572.458984,1175.843506 
	C1572.458984,1200.845703 1572.458984,1225.020752 1572.458984,1249.378662 
	C1565.035645,1253.334839 1557.819702,1252.055420 1549.577271,1252.378174 
	C1549.577271,1248.366455 1549.577148,1245.129272 1549.577393,1241.892090 
	C1549.578247,1223.584595 1549.580078,1205.277222 1549.578979,1186.969727 
	C1549.578857,1184.639771 1549.707397,1182.298706 1549.529663,1179.981689 
	C1548.881958,1171.542725 1547.348633,1170.122559 1538.479980,1169.383789 
	C1537.510498,1169.303101 1536.548706,1169.129761 1535.245239,1168.953735 
	C1533.741821,1165.865845 1533.441162,1163.196655 1537.626343,1162.243042 
	C1546.700073,1160.175415 1555.802002,1158.222656 1564.923462,1156.376099 
	C1571.933350,1154.956909 1571.678467,1160.859497 1572.971069,1165.519653 
	C1579.350586,1163.562866 1585.322998,1161.646118 1591.347778,1159.910645 
	C1595.816406,1158.623779 1600.301636,1157.290527 1604.867432,1156.463867 
	C1625.280884,1152.767212 1637.767334,1162.357910 1639.445312,1183.102051 
	C1639.873047,1188.390503 1639.513794,1193.742798 1639.515869,1200.055054 
z"/>
<path fill="#3316B0" opacity="1.000000" stroke="none" 
	d="
M544.750061,1229.918945 
	C544.930542,1219.273926 545.183655,1209.615234 545.187744,1199.956421 
	C545.189453,1195.974976 544.913879,1191.954224 544.319031,1188.018677 
	C542.331543,1174.871704 534.418213,1168.839844 521.297180,1170.420532 
	C518.002502,1170.817505 514.719971,1171.561768 511.525452,1172.473877 
	C508.352295,1173.380249 505.296967,1174.699097 501.203400,1176.198364 
	C501.203400,1179.512939 501.203094,1182.766724 501.203430,1186.020386 
	C501.205383,1204.686646 501.257477,1223.353027 501.187286,1242.018921 
	C501.154572,1250.713135 500.743896,1251.230713 492.486084,1251.941650 
	C488.236389,1252.307373 483.929199,1252.005737 478.838959,1252.005737 
	C478.574127,1248.901123 478.129608,1246.056519 478.121155,1243.210571 
	C478.061768,1223.211304 478.136383,1203.211426 478.077789,1183.212036 
	C478.041229,1170.730103 477.178497,1169.900879 464.495361,1169.044189 
	C462.798370,1166.640137 461.701355,1163.623901 465.363068,1162.661011 
	C476.196960,1159.812378 487.001434,1156.427002 498.773315,1156.394531 
	C499.986969,1159.536499 501.025696,1162.225708 502.140381,1165.111450 
	C511.664764,1162.453613 520.854431,1159.786133 530.108154,1157.363159 
	C533.304260,1156.526489 536.647278,1155.974243 539.944519,1155.847656 
	C555.917236,1155.234253 566.899902,1163.650635 567.595337,1179.539795 
	C568.611938,1202.769653 567.856750,1226.077148 567.856750,1249.221924 
	C560.168274,1253.137695 553.003723,1252.535767 544.722351,1251.952515 
	C544.722351,1244.658203 544.722351,1237.781616 544.750061,1229.918945 
z"/>
<path fill="#3316B0" opacity="1.000000" stroke="none" 
	d="
M1228.546631,1092.538208 
	C1241.164062,1082.191650 1254.851318,1078.378174 1270.108276,1082.079834 
	C1274.142212,1083.058594 1278.087402,1085.369019 1281.456299,1087.891968 
	C1286.217529,1091.457642 1287.066162,1096.873169 1285.563721,1102.356445 
	C1284.067139,1107.818481 1279.735840,1110.255493 1274.379517,1110.826538 
	C1271.790527,1111.102417 1269.147827,1110.874146 1266.007446,1110.874146 
	C1265.623901,1107.995605 1265.367920,1105.422974 1264.926514,1102.882690 
	C1263.477539,1094.544556 1258.412354,1090.959839 1250.056152,1092.405029 
	C1244.414429,1093.380737 1240.209106,1096.515991 1237.925659,1101.728882 
	C1236.471436,1105.048828 1234.816772,1108.639893 1234.739624,1112.142334 
	C1234.396973,1127.710327 1234.591064,1143.290283 1234.591064,1159.047852 
	C1243.529541,1159.047852 1252.375977,1159.047852 1261.804443,1159.047852 
	C1261.804443,1162.729614 1261.804443,1165.889160 1261.804443,1169.889648 
	C1252.735229,1169.889648 1243.902710,1169.889648 1234.119141,1169.889648 
	C1234.119141,1196.825073 1234.119141,1222.958252 1234.119141,1248.923828 
	C1226.573853,1253.310059 1219.367188,1252.388672 1211.700073,1252.049561 
	C1209.291870,1243.001099 1210.799561,1234.044922 1210.542358,1225.218872 
	C1210.280762,1216.239868 1210.484497,1207.247070 1210.484497,1198.260376 
	C1210.484497,1189.305176 1210.484497,1180.350098 1210.484497,1170.823364 
	C1205.535889,1170.551514 1201.312622,1170.319336 1196.521118,1170.056030 
	C1196.521118,1167.422241 1196.521118,1164.928467 1196.521118,1162.182007 
	C1200.924561,1161.520142 1205.130005,1160.888062 1210.483398,1160.083496 
	C1210.483398,1156.126953 1210.279663,1152.216187 1210.524414,1148.333740 
	C1211.089233,1139.379883 1211.268677,1130.340820 1212.718262,1121.519287 
	C1214.536255,1110.457031 1219.612061,1100.740356 1228.546631,1092.538208 
z"/>
<path fill="#3316B0" opacity="1.000000" stroke="none" 
	d="
M1670.439453,1164.172852 
	C1675.194458,1162.110352 1679.860107,1160.840820 1685.579102,1159.284790 
	C1685.579102,1153.063232 1685.027222,1146.453491 1685.709351,1139.973511 
	C1686.712891,1130.441162 1687.286133,1120.550049 1690.364014,1111.611206 
	C1698.058472,1089.265991 1721.214844,1076.795044 1743.793823,1081.896606 
	C1747.873657,1082.818237 1751.929810,1084.855835 1755.395020,1087.249634 
	C1760.659424,1090.886353 1761.585938,1096.520508 1760.069458,1102.450073 
	C1758.621948,1108.109985 1754.124756,1110.198730 1748.870972,1110.855103 
	C1746.308350,1111.175171 1743.672729,1110.910522 1740.625977,1110.910522 
	C1740.279297,1108.107788 1740.041626,1105.877441 1739.722412,1103.658936 
	C1738.396118,1094.440918 1732.506592,1090.404541 1723.527100,1092.608521 
	C1718.348755,1093.879517 1714.321533,1096.946655 1712.463257,1101.864258 
	C1710.717407,1106.484497 1709.026733,1111.429810 1708.860840,1116.285034 
	C1708.384521,1130.215942 1708.692871,1144.173706 1708.692871,1158.759155 
	C1717.739014,1158.759155 1726.533936,1158.759155 1736.300293,1158.759155 
	C1736.300293,1162.500000 1736.300293,1165.831909 1736.300293,1170.114746 
	C1727.031250,1170.114746 1718.186523,1170.114746 1708.407227,1170.114746 
	C1708.407227,1197.203003 1708.407227,1223.380127 1708.407227,1250.828735 
	C1700.757812,1251.527222 1693.957275,1252.148193 1685.976074,1252.877075 
	C1685.976074,1225.184448 1685.976074,1198.406860 1685.976074,1170.397827 
	C1681.367188,1170.397827 1677.839478,1170.354004 1674.313354,1170.409424 
	C1670.355347,1170.471436 1670.385010,1167.714844 1670.439453,1164.172852 
z"/>
<path fill="#3316B0" opacity="1.000000" stroke="none" 
	d="
M1843.449951,1235.418701 
	C1831.157959,1249.577271 1815.747681,1254.505371 1798.320557,1253.619751 
	C1771.544312,1252.259033 1752.276245,1229.218018 1754.601196,1201.861572 
	C1757.815308,1164.043457 1800.362671,1142.739746 1832.816528,1162.698853 
	C1852.953735,1175.083252 1860.154419,1203.183105 1849.025513,1226.341553 
	C1847.596069,1229.316040 1845.620605,1232.028076 1843.449951,1235.418701 
M1784.240601,1226.295532 
	C1787.092041,1229.928223 1789.414307,1234.200317 1792.890991,1237.077271 
	C1804.697021,1246.846558 1821.620483,1243.076172 1826.727173,1229.007446 
	C1833.060547,1211.559937 1831.465942,1194.207764 1821.432739,1178.346802 
	C1815.422241,1168.844971 1805.806519,1165.365723 1795.469482,1167.994141 
	C1785.815430,1170.449097 1781.967163,1177.975708 1779.942749,1186.848511 
	C1776.957031,1199.935913 1778.610474,1212.576416 1784.240601,1226.295532 
z"/>
<path fill="#3316B0" opacity="1.000000" stroke="none" 
	d="
M1083.840088,1234.100586 
	C1082.014038,1216.021362 1087.720459,1206.650635 1104.231812,1201.994385 
	C1112.463989,1199.672852 1121.191650,1199.042603 1129.728882,1197.898804 
	C1133.607056,1197.379150 1137.567017,1197.470093 1141.764282,1197.271118 
	C1142.043579,1194.696167 1142.437744,1192.756836 1142.435547,1190.818115 
	C1142.416260,1173.167725 1135.074951,1166.682373 1117.413452,1169.190308 
	C1109.554565,1170.306152 1101.812134,1172.242554 1093.331665,1173.944092 
	C1092.381592,1171.912354 1091.329956,1169.663086 1090.380737,1167.633179 
	C1090.982056,1166.678467 1091.199829,1165.837646 1091.684204,1165.635254 
	C1107.125366,1159.184814 1122.921265,1154.285522 1139.958496,1155.699097 
	C1154.155640,1156.877075 1162.243286,1163.686279 1164.099731,1177.682373 
	C1165.445435,1187.828369 1165.177856,1198.209351 1165.312256,1208.489746 
	C1165.489502,1222.060425 1165.355835,1235.635132 1165.355835,1250.251465 
	C1160.380371,1253.563843 1153.676880,1251.992920 1146.777222,1252.401855 
	C1145.390747,1249.860596 1144.027344,1247.361328 1142.660889,1244.856689 
	C1134.089111,1247.410034 1125.477295,1249.782715 1116.992920,1252.546509 
	C1103.455688,1256.956177 1087.283325,1249.131348 1083.840088,1234.100586 
M1140.283325,1234.647217 
	C1143.992676,1225.398315 1141.416016,1216.022461 1142.145264,1205.794678 
	C1133.203247,1206.800415 1125.541504,1207.173706 1118.090942,1208.628784 
	C1109.533691,1210.299927 1105.409668,1216.077393 1105.696777,1224.272461 
	C1106.029663,1233.776245 1113.712036,1240.183594 1124.328125,1239.086304 
	C1129.233887,1238.579102 1134.003662,1236.756958 1140.283325,1234.647217 
z"/>
<path fill="#3316B0" opacity="1.000000" stroke="none" 
	d="
M690.167847,1209.724609 
	C689.624329,1174.319092 717.759033,1155.121460 745.116394,1155.760742 
	C763.715942,1156.195557 774.749146,1167.495728 774.356079,1186.158081 
	C774.267151,1190.380127 773.373169,1194.585205 772.773315,1199.413696 
	C752.904968,1200.537598 733.769653,1201.619995 714.699585,1202.698730 
	C713.145996,1221.317993 726.770142,1236.958008 746.308228,1237.707153 
	C756.080933,1238.081909 765.954407,1235.827759 777.016296,1234.628906 
	C777.324768,1235.186523 778.363281,1237.063354 780.010315,1240.039917 
	C775.447876,1242.043213 771.427429,1244.277832 767.126465,1245.599365 
	C758.247986,1248.326782 749.335632,1251.187500 740.230652,1252.886108 
	C717.838623,1257.063599 698.132324,1244.349854 692.235168,1222.398438 
	C691.206360,1218.568848 690.873718,1214.552246 690.167847,1209.724609 
M744.923096,1192.278687 
	C747.117554,1191.896362 749.311951,1191.514160 751.505615,1191.131958 
	C752.847717,1182.657104 752.236816,1175.214600 744.654480,1170.522339 
	C738.113708,1166.474854 731.169128,1167.393677 724.901855,1171.221436 
	C716.618958,1176.280273 713.273682,1183.977661 714.026917,1194.583374 
	C724.159790,1193.824219 733.648438,1193.113281 744.923096,1192.278687 
z"/>
<path fill="#3316B0" opacity="1.000000" stroke="none" 
	d="
M2024.197021,1252.119385 
	C2003.647339,1257.488037 1983.630127,1249.271851 1974.571045,1230.669678 
	C1964.455688,1209.898682 1969.257935,1183.971436 1986.185059,1169.344360 
	C1998.421143,1158.770752 2012.845459,1154.527954 2028.834473,1156.076782 
	C2042.840576,1157.433350 2052.420654,1167.495605 2053.758789,1181.696411 
	C2053.976318,1184.006104 2054.016846,1186.381470 2053.736816,1188.677368 
	C2053.337158,1191.956665 2052.566162,1195.190918 2051.778320,1199.376953 
	C2032.500244,1200.490723 2013.341309,1201.597778 1994.244873,1202.701050 
	C1990.341797,1230.412476 2016.404785,1243.660645 2055.587646,1233.485718 
	C2056.495605,1235.495239 2057.467285,1237.645386 2059.087158,1241.230835 
	C2047.080688,1245.027710 2036.063232,1248.511841 2024.197021,1252.119385 
M2029.813110,1191.507446 
	C2033.750977,1184.245605 2031.214233,1177.796143 2026.340576,1172.489502 
	C2021.631348,1167.362305 2015.143433,1167.167114 2008.706665,1169.162354 
	C1998.377686,1172.364014 1992.986694,1181.120728 1993.525146,1194.545166 
	C2005.094360,1193.698486 2016.642944,1192.853271 2029.813110,1191.507446 
z"/>
<path fill="#3316B0" opacity="1.000000" stroke="none" 
	d="
M835.906616,1128.000000 
	C835.906982,1166.258545 835.923340,1203.517090 835.897217,1240.775635 
	C835.890015,1251.041138 835.604248,1251.371216 825.456421,1252.090454 
	C821.835693,1252.347046 818.181519,1252.131470 813.324341,1252.131470 
	C813.143982,1248.540161 812.818420,1245.043213 812.815552,1241.546021 
	C812.781555,1199.630127 812.795532,1157.714233 812.796326,1115.798340 
	C812.796326,1113.469727 812.825317,1111.140381 812.783264,1108.812500 
	C812.544006,1095.579102 811.981567,1094.937256 799.075134,1093.178833 
	C797.444641,1090.522949 797.454468,1087.868164 800.876526,1087.050293 
	C810.558655,1084.736450 820.291016,1082.540527 830.105286,1080.909912 
	C835.116272,1080.077393 835.928284,1084.021240 835.917236,1088.078003 
	C835.882019,1101.051880 835.905701,1114.026001 835.906616,1128.000000 
z"/>
<path fill="#3316B0" opacity="1.000000" stroke="none" 
	d="
M1475.234253,1128.355225 
	C1475.162476,1125.733276 1475.289185,1124.034668 1474.987427,1122.415771 
	C1473.663818,1115.313965 1472.512939,1114.288208 1465.234497,1113.566162 
	C1463.645874,1113.408447 1462.028198,1113.543091 1460.066040,1113.543091 
	C1459.605347,1111.165649 1459.244141,1109.301514 1458.592529,1105.938232 
	C1471.781128,1104.300903 1484.439941,1102.729370 1498.108032,1101.032593 
	C1498.572510,1105.244629 1499.158447,1108.101685 1499.162231,1110.959473 
	C1499.220825,1154.603638 1499.230347,1198.247925 1499.181641,1241.892090 
	C1499.171509,1250.921387 1498.778809,1251.331665 1489.619629,1252.010986 
	C1485.349121,1252.327637 1481.035889,1252.065186 1475.253784,1252.065186 
	C1475.248169,1231.335327 1475.240356,1210.809570 1475.237305,1190.283813 
	C1475.234253,1169.960938 1475.235962,1149.638062 1475.234253,1128.355225 
z"/>
<path fill="#3316B0" opacity="1.000000" stroke="none" 
	d="
M925.326599,1237.771484 
	C936.028442,1237.041748 945.895996,1236.222168 956.777527,1235.318359 
	C957.182434,1236.166870 958.127014,1238.146118 959.109924,1240.205688 
	C958.105103,1241.070801 957.482300,1241.999878 956.648193,1242.265503 
	C945.901672,1245.687988 935.310730,1249.909668 924.319824,1252.193604 
	C896.020935,1258.074097 874.362305,1241.040161 872.195923,1212.046753 
	C869.987305,1182.486938 890.496948,1158.828003 921.102844,1156.229004 
	C927.626465,1155.675049 934.377869,1156.382446 940.869202,1157.451050 
	C944.260010,1158.009155 947.776428,1160.089355 950.419067,1162.411865 
	C955.275391,1166.679932 956.855042,1172.353149 954.855896,1178.725830 
	C952.939514,1184.835205 947.800354,1186.250000 942.371826,1186.997559 
	C940.135925,1187.305420 937.822205,1187.048584 934.878601,1187.048584 
	C934.465515,1183.654907 934.236145,1180.787842 933.748657,1177.965454 
	C932.657837,1171.649780 929.560181,1168.782104 923.176392,1167.952515 
	C909.983948,1166.237793 898.618408,1173.341553 896.596802,1186.340698 
	C895.298706,1194.688232 895.464966,1203.726929 897.213196,1211.981934 
	C900.240662,1226.277954 909.923035,1234.920654 925.326599,1237.771484 
z"/>
<path fill="#3316B0" opacity="1.000000" stroke="none" 
	d="
M2127.000977,1157.067505 
	C2136.355957,1157.053101 2145.081299,1156.381348 2153.431641,1157.846558 
	C2157.754150,1158.605103 2162.588135,1162.360352 2165.134521,1166.145386 
	C2171.180908,1175.132690 2166.091064,1185.162231 2155.338623,1186.794678 
	C2152.508301,1187.224487 2149.557617,1186.859619 2146.973877,1186.859619 
	C2146.432861,1185.359253 2146.067871,1184.754028 2146.007324,1184.119751 
	C2144.526367,1168.634644 2135.887451,1163.575806 2121.489746,1169.671875 
	C2114.082520,1172.807861 2110.105225,1178.682983 2108.256348,1186.119629 
	C2106.042236,1195.026001 2106.459961,1204.001831 2108.984131,1212.772705 
	C2113.552490,1228.645752 2125.472900,1238.047852 2142.055420,1237.906860 
	C2150.593750,1237.834351 2159.116943,1236.011963 2168.395264,1234.889893 
	C2169.013672,1236.229004 2169.936523,1238.228149 2170.896484,1240.307373 
	C2169.826416,1241.161743 2169.167725,1242.044189 2168.315186,1242.314331 
	C2157.564453,1245.721924 2146.971680,1249.942505 2135.978271,1252.206665 
	C2108.044189,1257.960083 2086.573242,1241.319824 2084.111816,1212.880371 
	C2081.708984,1185.123413 2097.428223,1164.372070 2127.000977,1157.067505 
z"/>
<path fill="#3316B0" opacity="1.000000" stroke="none" 
	d="
M1940.639160,1170.003418 
	C1932.167114,1170.065674 1924.556519,1170.065674 1916.341919,1170.065674 
	C1916.017822,1172.505737 1915.562134,1174.371216 1915.554932,1176.238403 
	C1915.495605,1191.557251 1915.398071,1206.877686 1915.556396,1222.195190 
	C1915.687134,1234.849365 1922.037964,1240.422241 1934.570801,1238.920898 
	C1939.145508,1238.372925 1943.632202,1237.089844 1948.896729,1235.987671 
	C1949.725098,1238.227661 1950.568481,1240.508301 1951.942139,1244.222534 
	C1941.212402,1247.461060 1931.303345,1251.482300 1921.004639,1253.323364 
	C1904.789429,1256.222168 1892.698364,1244.655518 1892.344727,1226.799805 
	C1892.041382,1211.486694 1892.279297,1196.162842 1892.278076,1180.843750 
	C1892.277832,1177.601440 1892.278076,1174.359253 1892.278076,1170.789429 
	C1887.058105,1170.533081 1882.818481,1170.324829 1878.122559,1170.094238 
	C1878.122559,1167.245850 1878.122559,1164.762329 1878.122559,1162.087891 
	C1882.725708,1161.461182 1886.975342,1160.882568 1892.281860,1160.160034 
	C1892.281860,1154.155518 1892.346802,1148.239502 1892.256226,1142.325806 
	C1892.205811,1139.033936 1892.996826,1136.340332 1896.450439,1135.260254 
	C1902.030884,1133.515259 1907.640991,1131.865356 1915.067139,1129.623169 
	C1915.067139,1140.536255 1915.067139,1149.607666 1915.067139,1159.096191 
	C1925.340454,1159.096191 1934.150146,1159.096191 1943.490112,1159.096191 
	C1944.006348,1163.311768 1945.815552,1167.056885 1940.639160,1170.003418 
z"/>
<path fill="#3316B0" opacity="1.000000" stroke="none" 
	d="
M1278.525635,1169.216064 
	C1278.073364,1166.550171 1278.073364,1164.596313 1278.073364,1162.251587 
	C1282.666870,1161.570923 1286.869019,1160.948120 1292.487549,1160.115601 
	C1292.487549,1154.694824 1292.721191,1149.159546 1292.420166,1143.653564 
	C1292.135864,1138.453491 1294.356323,1135.524170 1299.243408,1134.248291 
	C1303.970947,1133.014038 1308.674072,1131.685913 1313.989380,1130.234863 
	C1317.626343,1140.009644 1314.245361,1149.475830 1316.481445,1158.900146 
	C1325.231812,1158.900146 1334.025146,1158.900146 1343.584961,1158.900146 
	C1343.584961,1162.645874 1343.584961,1166.054688 1343.584961,1169.966797 
	C1334.577637,1169.966797 1325.975586,1169.966797 1317.806030,1169.966797 
	C1316.940308,1170.938721 1316.137207,1171.418823 1316.132935,1171.905884 
	C1315.975098,1189.545654 1315.603027,1207.191284 1315.913208,1224.824463 
	C1316.082764,1234.463501 1322.326660,1239.624878 1332.566162,1239.066406 
	C1337.807983,1238.780396 1342.981323,1237.235718 1348.953125,1236.115967 
	C1349.835083,1238.037476 1350.852661,1240.254517 1351.768677,1242.250488 
	C1350.919312,1243.190186 1350.577881,1243.918579 1350.048218,1244.101685 
	C1341.269165,1247.134521 1332.637939,1250.844971 1323.631348,1252.913330 
	C1307.967163,1256.510742 1295.932739,1247.955444 1293.255127,1232.072510 
	C1292.541870,1227.841187 1292.537842,1223.460938 1292.516113,1219.147705 
	C1292.435669,1203.198608 1292.484131,1187.248901 1292.484131,1170.956177 
	C1287.468018,1170.574341 1283.222900,1170.251221 1278.525635,1169.216064 
z"/>
<path fill="#3316B0" opacity="1.000000" stroke="none" 
	d="
M607.028564,1161.058350 
	C610.663757,1160.583008 613.317627,1160.162842 613.193726,1156.433594 
	C613.138550,1154.772217 613.217163,1153.106567 613.233887,1151.442871 
	C613.399780,1134.969482 613.396912,1134.956787 629.520142,1131.457886 
	C631.055542,1131.124634 632.653015,1131.077637 635.628540,1130.736328 
	C635.628540,1140.471313 635.628540,1149.553711 635.628540,1159.017822 
	C645.794922,1159.017822 654.629578,1159.017822 664.193481,1159.017822 
	C664.193481,1162.629028 664.193481,1165.741699 664.193481,1169.808838 
	C655.109253,1169.808838 646.300659,1169.808838 637.061218,1169.808838 
	C636.650452,1172.540649 636.132996,1174.411011 636.124939,1176.283447 
	C636.059204,1191.591187 636.375061,1206.906250 636.004395,1222.205200 
	C635.665344,1236.199463 645.641602,1240.210938 655.286926,1238.946655 
	C659.848267,1238.348877 664.324402,1237.100830 669.549316,1235.997314 
	C670.417358,1238.265991 671.284912,1240.533447 672.694824,1244.218506 
	C661.886047,1247.483398 651.984802,1251.479858 641.697266,1253.344482 
	C626.503845,1256.098267 614.261902,1245.698486 613.543335,1229.698242 
	C612.827393,1213.756104 613.286926,1197.760986 613.236206,1181.789185 
	C613.224854,1178.229980 613.234619,1174.670898 613.234619,1170.892822 
	C607.666382,1170.533081 603.428345,1170.259277 598.741333,1169.956421 
	C598.556580,1167.455078 598.393250,1165.244019 598.175903,1162.301758 
	C601.069641,1161.889771 603.596497,1161.530029 607.028564,1161.058350 
z"/>
<path fill="#3316B0" opacity="1.000000" stroke="none" 
	d="
M416.054260,1102.182007 
	C420.174927,1102.113647 423.380707,1102.113647 427.243286,1102.113647 
	C427.243286,1151.979370 427.243286,1200.761108 427.243286,1250.958496 
	C419.675293,1251.518677 412.291779,1252.065308 403.920074,1252.685059 
	C403.920074,1247.662354 403.920074,1244.063477 403.920074,1240.464478 
	C403.920258,1203.823120 403.920959,1167.181763 403.919220,1130.540405 
	C403.919128,1128.208862 404.031250,1125.867798 403.865692,1123.547363 
	C403.343109,1116.221680 401.550903,1114.396729 394.195740,1113.561768 
	C392.577728,1113.378052 390.937744,1113.387817 389.218231,1113.304199 
	C388.726196,1112.169922 388.195648,1111.333862 388.016632,1110.428223 
	C387.827759,1109.472656 387.974304,1108.450806 387.974304,1106.177979 
	C396.969666,1104.877441 406.054535,1103.563843 416.054260,1102.182007 
z"/>
<path fill="#3316B0" opacity="1.000000" stroke="none" 
	d="
M1044.144531,1176.028320 
	C1041.720581,1171.370239 1038.075928,1170.809326 1034.365845,1171.700684 
	C1029.606567,1172.843994 1024.999023,1174.619751 1019.721802,1176.317505 
	C1019.721802,1183.877563 1019.721863,1190.825195 1019.721802,1197.772949 
	C1019.721802,1212.760864 1019.789001,1227.749146 1019.694153,1242.736572 
	C1019.644165,1250.634399 1019.159058,1251.212646 1011.319458,1251.907959 
	C1007.050842,1252.286621 1002.721069,1251.975586 997.192871,1251.975586 
	C996.958923,1248.872925 996.526611,1245.724243 996.515930,1242.574341 
	C996.451782,1223.589966 996.486938,1204.605103 996.480774,1185.620483 
	C996.479980,1183.289673 996.567688,1180.947754 996.378601,1178.630127 
	C995.794250,1171.465820 994.414185,1170.067627 987.338318,1169.358887 
	C985.780518,1169.202759 984.193726,1169.335938 982.835571,1169.335938 
	C981.337952,1166.095825 980.584473,1163.246460 984.325928,1162.389160 
	C995.253357,1159.885498 1006.259460,1157.725220 1017.866394,1155.298340 
	C1018.976990,1159.479004 1019.716248,1162.262085 1020.539368,1165.360718 
	C1021.239197,1165.289917 1022.188171,1165.392334 1022.975708,1165.083130 
	C1029.466553,1162.535156 1035.836182,1159.639160 1042.435303,1157.422485 
	C1045.826660,1156.283447 1049.625732,1155.814941 1053.214966,1155.919678 
	C1061.027466,1156.147705 1066.108643,1161.590820 1066.410278,1169.334839 
	C1066.720703,1177.306763 1062.328125,1183.035156 1054.707886,1184.171753 
	C1052.114014,1184.558716 1049.413818,1184.233276 1046.184448,1184.233276 
	C1045.593750,1181.755737 1045.003052,1179.278076 1044.144531,1176.028320 
z"/>
<path fill="#3316B0" opacity="1.000000" stroke="none" 
	d="
M509.805603,880.397461 
	C501.551392,873.413330 496.079620,864.730347 493.432617,854.201355 
	C490.993408,844.498901 492.232422,835.368408 498.310791,826.386719 
	C506.518463,829.530334 515.785461,827.294373 521.052429,834.659851 
	C518.696655,848.848083 521.912659,857.841431 530.484985,859.702698 
	C533.899292,860.443970 538.110535,860.422668 541.223328,859.063660 
	C548.651001,855.820862 549.320068,847.620239 552.190674,840.661194 
	C560.321533,842.553528 567.995056,844.339478 575.842651,846.727356 
	C573.920044,872.751343 549.334412,890.513733 523.392456,884.687927 
	C518.775208,883.650940 514.330200,881.847107 509.805603,880.397461 
z"/>
<path fill="#A058C6" opacity="1.000000" stroke="none" 
	d="
M575.668579,846.125427 
	C567.995056,844.339478 560.321533,842.553528 552.190674,840.661194 
	C549.320068,847.620239 548.651001,855.820862 541.223328,859.063660 
	C538.110535,860.422668 533.899292,860.443970 530.484985,859.702698 
	C521.912659,857.841431 518.696655,848.848083 521.052429,834.659851 
	C515.785461,827.294373 506.518463,829.530334 498.837097,825.853149 
	C510.255493,799.640320 546.113586,794.624878 565.562073,816.280945 
	C568.411804,819.454163 570.477417,823.331604 573.129517,828.342041 
	C574.124939,835.242371 574.896729,840.683899 575.668579,846.125427 
z"/>
<path fill="#7511A8" opacity="1.000000" stroke="none" 
	d="
M363.954956,819.570618 
	C360.828003,826.122314 354.770996,823.062866 349.062164,823.833252 
	C346.870300,796.143066 366.362488,772.713562 394.465973,768.238342 
	C419.945648,764.181030 446.660004,781.076111 454.050598,805.963867 
	C455.085602,809.449280 455.912750,812.996460 456.617065,817.098267 
	C450.663147,817.551514 444.928253,817.421570 438.444519,816.356140 
	C434.040863,805.614014 432.346649,795.719238 421.097260,789.451050 
	C399.772980,777.569092 382.623047,780.009155 368.781738,797.985901 
	C366.468140,800.990723 363.530243,803.514893 360.931915,806.208191 
	C361.929901,810.619446 362.942413,815.095032 363.954956,819.570618 
z"/>
<path fill="#308754" opacity="1.000000" stroke="none" 
	d="
M501.927307,1651.563721 
	C504.015900,1651.831543 506.104462,1652.099121 509.404480,1652.807007 
	C512.526855,1652.977661 514.437866,1652.708008 516.348877,1652.438477 
	C520.277649,1652.445557 524.206421,1652.452637 529.184143,1652.696045 
	C530.828247,1652.641113 531.423401,1652.349976 532.018555,1652.058838 
	C549.877747,1651.871582 566.795044,1646.990967 583.174744,1640.628662 
	C629.277100,1622.721069 661.767883,1590.424438 682.558411,1545.064087 
	C683.923340,1545.226318 684.566833,1545.724731 685.210327,1546.223145 
	C656.924622,1622.904785 571.030457,1670.686646 490.119568,1653.468628 
	C487.988190,1652.690308 486.940491,1652.590454 485.892761,1652.490601 
	C482.382324,1651.692139 478.871887,1650.893677 475.113129,1649.413818 
	C476.586121,1648.416626 478.307434,1648.100830 480.725525,1648.010742 
	C482.867401,1648.375366 484.312531,1648.514160 485.757690,1648.652954 
	C488.576111,1649.263306 491.394531,1649.873657 495.440277,1650.968750 
	C498.420837,1651.490234 500.174072,1651.526978 501.927307,1651.563721 
z"/>
<path fill="#308754" opacity="1.000000" stroke="none" 
	d="
M1057.488403,1008.932983 
	C1067.535522,1017.325684 1077.592773,1026.529175 1090.734009,1031.205078 
	C1120.368042,1041.749634 1148.284058,1038.820801 1173.699707,1019.766174 
	C1198.118530,1001.458923 1208.656738,976.343384 1208.084106,945.362244 
	C1207.615723,940.675842 1207.236084,936.839111 1206.703613,932.385864 
	C1216.720703,966.014221 1208.194702,995.507996 1182.483154,1019.538879 
	C1144.437134,1055.098145 1085.712646,1047.842407 1057.488403,1008.932983 
z"/>
<path fill="#308754" opacity="1.000000" stroke="none" 
	d="
M1005.543823,960.720459 
	C1005.760071,953.528015 1006.148010,947.129944 1006.339722,939.948486 
	C1018.259949,978.116699 993.882690,1017.739990 955.147888,1028.039429 
	C925.972778,1035.796875 898.328430,1025.807983 879.838013,1000.989380 
	C886.955017,1005.933044 893.746765,1012.578613 901.791931,1016.880188 
	C937.736328,1036.098877 986.304810,1019.969543 1001.832092,977.893982 
	C1003.760559,972.668213 1004.451294,966.985718 1005.543823,960.720459 
z"/>
<path fill="#A058C6" opacity="1.000000" stroke="none" 
	d="
M152.752625,1473.869873 
	C156.072311,1470.510254 159.274689,1472.877808 162.534195,1474.323975 
	C174.687439,1479.715576 187.336548,1482.481323 200.549774,1484.583618 
	C213.709625,1486.677368 226.487244,1485.842529 238.881104,1483.487915 
	C255.367752,1480.355713 271.688446,1475.365601 285.838104,1465.438477 
	C289.630280,1462.777954 293.418793,1460.046143 297.495819,1457.889282 
	C299.176239,1457.000244 301.613007,1457.540649 304.158813,1458.010986 
	C291.012177,1471.802612 274.503235,1480.080933 256.665375,1485.499146 
	C220.707535,1496.421753 186.080597,1492.740967 152.752625,1473.869873 
z"/>
<path fill="#308754" opacity="1.000000" stroke="none" 
	d="
M136.116852,1195.304077 
	C173.108307,1191.665405 200.179916,1173.467285 218.056259,1141.245117 
	C226.841797,1125.409180 229.179077,1108.160767 228.982193,1089.534912 
	C233.913208,1100.507935 231.377823,1112.548218 228.587738,1123.938477 
	C220.845230,1155.546753 201.697937,1178.431030 171.902863,1191.729492 
	C164.788864,1194.904541 156.736847,1196.026733 149.065613,1197.883911 
	C145.294098,1198.796997 141.406845,1199.232178 136.700867,1199.777466 
	C135.912598,1198.421631 135.995453,1197.172119 136.116852,1195.304077 
z"/>
<path fill="#308754" opacity="1.000000" stroke="none" 
	d="
M575.842651,846.727356 
	C574.896729,840.683899 574.124939,835.242371 573.263184,829.099487 
	C584.165222,847.317261 577.877686,868.104126 564.730896,879.628479 
	C550.283813,892.292664 527.883545,895.085815 509.969788,880.881104 
	C514.330200,881.847107 518.775208,883.650940 523.392456,884.687927 
	C549.334412,890.513733 573.920044,872.751343 575.842651,846.727356 
z"/>
<path fill="#BB51A7" opacity="1.000000" stroke="none" 
	d="
M685.583374,1545.708496 
	C684.566833,1545.724731 683.923340,1545.226318 682.766846,1544.394287 
	C682.916626,1541.196045 683.364502,1538.260864 684.275085,1535.477173 
	C694.376221,1504.600952 694.824097,1473.314453 688.472168,1441.706299 
	C688.083069,1439.770386 688.060486,1437.760864 687.890686,1434.935303 
	C689.289551,1437.698730 691.034424,1441.218262 691.983337,1444.940552 
	C700.661377,1478.982056 699.062866,1512.443481 685.583374,1545.708496 
z"/>
<path fill="#BB51A7" opacity="1.000000" stroke="none" 
	d="
M480.028778,1647.785156 
	C478.307434,1648.100830 476.586121,1648.416626 474.380554,1649.188965 
	C462.830292,1645.318726 451.392426,1641.740723 440.790863,1636.477905 
	C427.060089,1629.661987 414.557739,1620.757812 404.202698,1608.488770 
	C412.298523,1608.435547 416.092987,1615.703857 422.025055,1619.664185 
	C435.030029,1628.346191 448.181610,1636.561523 463.911133,1642.034668 
	C464.675415,1642.604858 465.145050,1642.978516 465.145050,1642.978516 
	C465.145050,1642.978516 465.730957,1642.846436 465.730957,1642.846436 
	C469.983826,1643.895630 474.236664,1644.944824 479.314117,1646.460938 
	C480.138733,1646.927856 480.028778,1647.785156 480.028778,1647.785156 
z"/>
<path fill="#F92FBB" opacity="1.000000" stroke="none" 
	d="
M376.185455,1572.670898 
	C382.968781,1575.395142 388.188782,1579.963013 387.994202,1589.206787 
	C384.034271,1584.456543 380.123322,1578.910400 376.185455,1572.670898 
z"/>
<path fill="#BB51A7" opacity="1.000000" stroke="none" 
	d="
M394.088318,1598.079468 
	C397.217346,1600.426758 400.444702,1603.496826 403.919556,1607.195435 
	C400.840210,1604.816650 397.513397,1601.809326 394.088318,1598.079468 
z"/>
<path fill="#BB51A7" opacity="1.000000" stroke="none" 
	d="
M347.478271,1327.519165 
	C346.355225,1326.227783 345.409760,1324.274658 344.703430,1321.605957 
	C345.847015,1322.879395 346.751434,1324.868408 347.478271,1327.519165 
z"/>
<path fill="#308754" opacity="1.000000" stroke="none" 
	d="
M1052.488892,1001.799744 
	C1053.264404,1002.483215 1054.175049,1003.554443 1055.139893,1005.072876 
	C1054.337524,1004.409180 1053.480713,1003.298340 1052.488892,1001.799744 
z"/>
<path fill="#BB51A7" opacity="1.000000" stroke="none" 
	d="
M389.954315,1593.252197 
	C393.966522,1590.017456 393.049530,1594.017700 393.884796,1596.409302 
	C392.625549,1596.008667 391.357025,1594.937866 389.954315,1593.252197 
z"/>
<path fill="#BB51A7" opacity="1.000000" stroke="none" 
	d="
M344.494080,1317.688721 
	C343.623138,1316.938110 342.973572,1315.749390 342.428436,1313.855225 
	C343.260345,1314.516724 343.987885,1315.883789 344.494080,1317.688721 
z"/>
<path fill="#F92FBB" opacity="1.000000" stroke="none" 
	d="
M373.015625,1567.041016 
	C373.823944,1567.351685 374.780273,1568.322754 375.668457,1570.061279 
	C374.788055,1569.786255 373.975830,1568.743896 373.015625,1567.041016 
z"/>
<path fill="#A058C6" opacity="1.000000" stroke="none" 
	d="
M486.247681,1652.884277 
	C486.940491,1652.590454 487.988190,1652.690308 489.333221,1653.249756 
	C488.621216,1653.565552 487.611908,1653.421875 486.247681,1652.884277 
z"/>
<path fill="#F92FBB" opacity="1.000000" stroke="none" 
	d="
M367.091553,1555.045898 
	C367.714966,1555.326660 368.463623,1556.235596 368.809326,1557.536987 
	C368.009857,1557.177612 367.613312,1556.425903 367.091553,1555.045898 
z"/>
<path fill="#7511A8" opacity="1.000000" stroke="none" 
	d="
M456.464203,834.739502 
	C456.150818,834.180420 456.158478,833.418701 456.372620,832.116089 
	C456.647858,832.562439 456.716553,833.549622 456.464203,834.739502 
z"/>
<path fill="#308754" opacity="1.000000" stroke="none" 
	d="
M1049.938477,997.078552 
	C1050.040527,997.153015 1050.490845,997.611694 1050.336182,997.563538 
	C1050.181396,997.515381 1049.836548,997.004089 1049.938477,997.078552 
z"/>
<path fill="#F92FBB" opacity="1.000000" stroke="none" 
	d="
M371.303619,1564.494141 
	C371.500671,1564.273438 371.927887,1564.863403 371.968750,1565.040405 
	C372.009583,1565.217407 371.417603,1565.217529 371.417603,1565.217529 
	C371.417603,1565.217529 371.106567,1564.714966 371.303619,1564.494141 
z"/>
<path fill="#308754" opacity="1.000000" stroke="none" 
	d="
M878.183716,998.769043 
	C878.604248,998.597595 879.031250,998.999146 879.500916,999.959229 
	C879.105652,1000.122375 878.654480,999.730469 878.183716,998.769043 
z"/>
<path fill="#F61DAC" opacity="1.000000" stroke="none" 
	d="
M632.828369,1495.996582 
	C611.328247,1495.998291 590.681580,1496.152100 570.039368,1495.917236 
	C563.460388,1495.842407 556.895508,1494.709473 550.319885,1494.106934 
	C542.419250,1493.382935 534.489014,1492.916504 526.616394,1491.966797 
	C512.530029,1490.267456 498.404877,1488.711914 484.429718,1486.316040 
	C468.928192,1483.658813 453.503021,1480.548828 438.006500,1477.814697 
	C425.659210,1475.636230 413.612854,1471.752075 400.738037,1468.325928 
	C402.938263,1458.280396 405.444519,1448.395996 408.841278,1438.827759 
	C412.039490,1429.818726 416.033844,1421.077637 420.011292,1412.371094 
	C420.889313,1410.449219 423.194794,1409.192505 424.801453,1407.588013 
	C430.437561,1401.959839 436.131256,1396.386475 441.656494,1390.651123 
	C446.194458,1385.940552 450.478790,1380.986206 454.985382,1376.244263 
	C455.850616,1375.333740 457.227814,1374.345947 458.365753,1374.349487 
	C466.233551,1374.374146 471.850098,1369.388184 478.310455,1366.093872 
	C482.582489,1363.915405 487.588898,1362.792236 492.395477,1362.124634 
	C503.501404,1360.582031 514.681091,1359.557861 525.841858,1358.431763 
	C528.467651,1358.166870 531.306763,1357.718384 533.758118,1358.398438 
	C549.031433,1362.634644 564.168701,1367.365967 579.464172,1371.516113 
	C586.674988,1373.472534 591.061096,1378.928955 596.325562,1383.365967 
	C599.867065,1386.350464 603.051147,1389.855713 606.891113,1392.370605 
	C616.602539,1398.730957 622.912659,1407.722412 628.870056,1417.443604 
	C638.178345,1432.632690 641.348572,1450.202271 648.937988,1466.002563 
	C651.658875,1471.667358 648.620789,1476.194580 646.053589,1480.468384 
	C647.618652,1484.422363 649.017578,1487.956665 650.352417,1491.328979 
	C644.933289,1496.079956 639.334229,1496.137817 632.828369,1495.996582 
z"/>
<path fill="#B11C94" opacity="1.000000" stroke="none" 
	d="
M515.546875,1652.185059 
	C514.437866,1652.708008 512.526855,1652.977661 510.195435,1652.788330 
	C511.431610,1652.196899 513.088196,1652.064331 515.546875,1652.185059 
z"/>
<path fill="#BB51A7" opacity="1.000000" stroke="none" 
	d="
M501.485565,1651.043457 
	C500.174072,1651.526978 498.420837,1651.490234 496.180603,1650.983032 
	C497.477020,1650.516235 499.260437,1650.519775 501.485565,1651.043457 
z"/>
<path fill="#F92FBB" opacity="1.000000" stroke="none" 
	d="
M480.725525,1648.010742 
	C480.028778,1647.785156 480.138733,1646.927856 480.143677,1646.496338 
	C481.865631,1646.492920 483.582672,1646.921021 485.528687,1648.000977 
	C484.312531,1648.514160 482.867401,1648.375366 480.725525,1648.010742 
z"/>
<path fill="#F92FBB" opacity="1.000000" stroke="none" 
	d="
M465.568115,1642.667236 
	C465.730957,1642.846436 465.145050,1642.978516 465.145050,1642.978516 
	C465.145050,1642.978516 464.675415,1642.604858 464.618622,1642.308350 
	C464.561829,1642.011719 465.405304,1642.488037 465.568115,1642.667236 
z"/>
<path fill="#B11C94" opacity="1.000000" stroke="none" 
	d="
M531.454285,1651.959961 
	C531.423401,1652.349976 530.828247,1652.641113 530.020935,1652.586182 
	C530.169128,1652.113892 530.529541,1651.987427 531.454285,1651.959961 
z"/>
<path fill="#F92FBB" opacity="1.000000" stroke="none" 
	d="
M244.007568,1391.674805 
	C238.790527,1400.641357 230.384186,1402.556152 220.725510,1404.411621 
	C202.819061,1407.851807 189.507996,1400.687622 178.080444,1388.826172 
	C165.244598,1375.502930 161.747025,1358.636230 164.491196,1340.846436 
	C165.351532,1335.269165 169.791168,1330.259644 172.513016,1324.949341 
	C175.012527,1320.073120 177.404984,1315.141968 180.043320,1309.835205 
	C183.178726,1311.660156 185.103989,1312.780762 188.190613,1314.404541 
	C190.987228,1317.387329 192.578552,1319.897461 194.267471,1322.339966 
	C197.215652,1326.603638 200.808624,1328.232666 206.124298,1326.284912 
	C216.605011,1322.444702 226.217072,1327.054810 235.268448,1331.162598 
	C239.175552,1332.935791 242.105316,1338.111816 244.208649,1342.369629 
	C249.904236,1353.899902 249.676651,1365.026001 241.189194,1375.710693 
	C236.320374,1381.839844 236.895111,1382.561157 241.616028,1388.525391 
	C242.433975,1389.558838 243.211426,1390.624146 244.007568,1391.674805 
z"/>
<path fill="#F61DAC" opacity="1.000000" stroke="none" 
	d="
M244.685364,1391.854736 
	C243.211426,1390.624146 242.433975,1389.558838 241.616028,1388.525391 
	C236.895111,1382.561157 236.320374,1381.839844 241.189194,1375.710693 
	C249.676651,1365.026001 249.904236,1353.899902 244.208649,1342.369629 
	C242.105316,1338.111816 239.175552,1332.935791 235.268448,1331.162598 
	C226.217072,1327.054810 216.605011,1322.444702 206.124298,1326.284912 
	C200.808624,1328.232666 197.215652,1326.603638 194.267471,1322.339966 
	C192.578552,1319.897461 190.987228,1317.387329 188.874130,1314.492432 
	C187.626312,1311.831299 186.856339,1309.585327 185.972076,1306.635498 
	C192.850357,1304.198364 199.954651,1302.820557 206.814468,1300.664673 
	C227.004578,1294.319458 249.148193,1306.158447 259.559509,1319.155396 
	C266.676544,1328.039917 271.264771,1338.150513 273.248383,1349.235229 
	C274.160400,1354.331787 274.198578,1359.902588 273.176300,1364.964233 
	C270.725983,1377.096680 266.012848,1388.317993 256.278442,1397.562012 
	C252.464417,1396.145874 248.913788,1394.090210 244.685364,1391.854736 
z"/>
<path fill="#A058C6" opacity="1.000000" stroke="none" 
	d="
M364.819458,819.645508 
	C362.942413,815.095032 361.929901,810.619446 360.931915,806.208191 
	C363.530243,803.514893 366.468140,800.990723 368.781738,797.985901 
	C382.623047,780.009155 399.772980,777.569092 421.097260,789.451050 
	C432.346649,795.719238 434.040863,805.614014 437.545837,816.033325 
	C421.995239,816.944519 406.587616,817.054138 391.196503,817.615784 
	C382.678040,817.926697 374.187225,818.994080 364.819458,819.645508 
z"/>
<path fill="#FFFFFF" opacity="1.000000" stroke="none" 
	d="
M1783.957397,1225.586914 
	C1778.610474,1212.576416 1776.957031,1199.935913 1779.942749,1186.848511 
	C1781.967163,1177.975708 1785.815430,1170.449097 1795.469482,1167.994141 
	C1805.806519,1165.365723 1815.422241,1168.844971 1821.432739,1178.346802 
	C1831.465942,1194.207764 1833.060547,1211.559937 1826.727173,1229.007446 
	C1821.620483,1243.076172 1804.697021,1246.846558 1792.890991,1237.077271 
	C1789.414307,1234.200317 1787.092041,1229.928223 1783.957397,1225.586914 
z"/>
<path fill="#FFFFFF" opacity="1.000000" stroke="none" 
	d="
M1139.559204,1235.089111 
	C1134.003662,1236.756958 1129.233887,1238.579102 1124.328125,1239.086304 
	C1113.712036,1240.183594 1106.029663,1233.776245 1105.696777,1224.272461 
	C1105.409668,1216.077393 1109.533691,1210.299927 1118.090942,1208.628784 
	C1125.541504,1207.173706 1133.203247,1206.800415 1142.145264,1205.794678 
	C1141.416016,1216.022461 1143.992676,1225.398315 1139.559204,1235.089111 
z"/>
<path fill="#FFFFFF" opacity="1.000000" stroke="none" 
	d="
M744.030090,1192.340576 
	C733.648438,1193.113281 724.159790,1193.824219 714.026917,1194.583374 
	C713.273682,1183.977661 716.618958,1176.280273 724.901855,1171.221436 
	C731.169128,1167.393677 738.113708,1166.474854 744.654480,1170.522339 
	C752.236816,1175.214600 752.847717,1182.657104 751.505615,1191.131958 
	C749.311951,1191.514160 747.117554,1191.896362 744.030090,1192.340576 
z"/>
<path fill="#FFFFFF" opacity="1.000000" stroke="none" 
	d="
M2029.002441,1191.757812 
	C2016.642944,1192.853271 2005.094360,1193.698486 1993.525146,1194.545166 
	C1992.986694,1181.120728 1998.377686,1172.364014 2008.706665,1169.162354 
	C2015.143433,1167.167114 2021.631348,1167.362305 2026.340576,1172.489502 
	C2031.214233,1177.796143 2033.750977,1184.245605 2029.002441,1191.757812 
z"/>
</svg>